<?xml version="1.0" encoding="utf-8" standalone="no"?>
<!DOCTYPE svg PUBLIC "-//W3C//DTD SVG 1.1//EN"
  "http://www.w3.org/Graphics/SVG/1.1/DTD/svg11.dtd">
<svg xmlns:xlink="http://www.w3.org/1999/xlink" width="452.88pt" height="339.84pt" viewBox="0 0 452.88 339.84" xmlns="http://www.w3.org/2000/svg" version="1.1">
 <metadata>
  <rdf:RDF xmlns:dc="http://purl.org/dc/elements/1.1/" xmlns:cc="http://creativecommons.org/ns#" xmlns:rdf="http://www.w3.org/1999/02/22-rdf-syntax-ns#">
   <cc:Work>
    <dc:type rdf:resource="http://purl.org/dc/dcmitype/StillImage"/>
    <dc:date>2022-11-03T16:02:41.356878</dc:date>
    <dc:format>image/svg+xml</dc:format>
    <dc:creator>
     <cc:Agent>
      <dc:title>Matplotlib v3.5.3, https://matplotlib.org/</dc:title>
     </cc:Agent>
    </dc:creator>
   </cc:Work>
  </rdf:RDF>
 </metadata>
 <defs>
  <style type="text/css">*{stroke-linejoin: round; stroke-linecap: butt}</style>
 </defs>
 <g id="figure_1">
  <g id="patch_1">
   <path d="M 0 339.84 
L 452.88 339.84 
L 452.88 0 
L 0 0 
z
" style="fill: #ffffff"/>
  </g>
  <g id="axes_1">
   <g id="patch_2">
    <path d="M 56.61 302.4576 
L 407.592 302.4576 
L 407.592 40.7808 
L 56.61 40.7808 
z
" style="fill: #ffffff"/>
   </g>
   <g id="patch_3">
    <path d="M 56.61 302.4576 
L 64.507095 302.4576 
L 64.507095 74.912557 
L 56.61 74.912557 
z
" clip-path="url(#p9c570c1110)" style="fill: #264653"/>
   </g>
   <g id="patch_4">
    <path d="M 64.507095 302.4576 
L 72.40419 302.4576 
L 72.40419 275.340833 
L 64.507095 275.340833 
z
" clip-path="url(#p9c570c1110)" style="fill: #264653"/>
   </g>
   <g id="patch_5">
    <path d="M 72.40419 302.4576 
L 80.301285 302.4576 
L 80.301285 287.130732 
L 72.40419 287.130732 
z
" clip-path="url(#p9c570c1110)" style="fill: #264653"/>
   </g>
   <g id="patch_6">
    <path d="M 80.301285 302.4576 
L 88.19838 302.4576 
L 88.19838 295.383661 
L 80.301285 295.383661 
z
" clip-path="url(#p9c570c1110)" style="fill: #264653"/>
   </g>
   <g id="patch_7">
    <path d="M 88.19838 302.4576 
L 96.095475 302.4576 
L 96.095475 298.92063 
L 88.19838 298.92063 
z
" clip-path="url(#p9c570c1110)" style="fill: #264653"/>
   </g>
   <g id="patch_8">
    <path d="M 96.095475 302.4576 
L 103.99257 302.4576 
L 103.99257 298.92063 
L 96.095475 298.92063 
z
" clip-path="url(#p9c570c1110)" style="fill: #264653"/>
   </g>
   <g id="patch_9">
    <path d="M 103.99257 302.4576 
L 111.889665 302.4576 
L 111.889665 300.09962 
L 103.99257 300.09962 
z
" clip-path="url(#p9c570c1110)" style="fill: #264653"/>
   </g>
   <g id="patch_10">
    <path d="M 111.889665 302.4576 
L 119.78676 302.4576 
L 119.78676 298.92063 
L 111.889665 298.92063 
z
" clip-path="url(#p9c570c1110)" style="fill: #264653"/>
   </g>
   <g id="patch_11">
    <path d="M 119.78676 302.4576 
L 127.683855 302.4576 
L 127.683855 300.09962 
L 119.78676 300.09962 
z
" clip-path="url(#p9c570c1110)" style="fill: #264653"/>
   </g>
   <g id="patch_12">
    <path d="M 127.683855 302.4576 
L 135.58095 302.4576 
L 135.58095 301.27861 
L 127.683855 301.27861 
z
" clip-path="url(#p9c570c1110)" style="fill: #264653"/>
   </g>
   <g id="patch_13">
    <path d="M 135.58095 302.4576 
L 143.478045 302.4576 
L 143.478045 296.562651 
L 135.58095 296.562651 
z
" clip-path="url(#p9c570c1110)" style="fill: #264653"/>
   </g>
   <g id="patch_14">
    <path d="M 143.478045 302.4576 
L 151.37514 302.4576 
L 151.37514 297.741641 
L 143.478045 297.741641 
z
" clip-path="url(#p9c570c1110)" style="fill: #264653"/>
   </g>
   <g id="patch_15">
    <path d="M 151.37514 302.4576 
L 159.272235 302.4576 
L 159.272235 300.09962 
L 151.37514 300.09962 
z
" clip-path="url(#p9c570c1110)" style="fill: #264653"/>
   </g>
   <g id="patch_16">
    <path d="M 159.272235 302.4576 
L 167.16933 302.4576 
L 167.16933 302.4576 
L 159.272235 302.4576 
z
" clip-path="url(#p9c570c1110)" style="fill: #264653"/>
   </g>
   <g id="patch_17">
    <path d="M 167.16933 302.4576 
L 175.066425 302.4576 
L 175.066425 300.09962 
L 167.16933 300.09962 
z
" clip-path="url(#p9c570c1110)" style="fill: #264653"/>
   </g>
   <g id="patch_18">
    <path d="M 175.066425 302.4576 
L 182.96352 302.4576 
L 182.96352 298.92063 
L 175.066425 298.92063 
z
" clip-path="url(#p9c570c1110)" style="fill: #264653"/>
   </g>
   <g id="patch_19">
    <path d="M 182.96352 302.4576 
L 190.860615 302.4576 
L 190.860615 300.09962 
L 182.96352 300.09962 
z
" clip-path="url(#p9c570c1110)" style="fill: #264653"/>
   </g>
   <g id="patch_20">
    <path d="M 190.860615 302.4576 
L 198.75771 302.4576 
L 198.75771 302.4576 
L 190.860615 302.4576 
z
" clip-path="url(#p9c570c1110)" style="fill: #264653"/>
   </g>
   <g id="patch_21">
    <path d="M 198.75771 302.4576 
L 206.654805 302.4576 
L 206.654805 295.383661 
L 198.75771 295.383661 
z
" clip-path="url(#p9c570c1110)" style="fill: #264653"/>
   </g>
   <g id="patch_22">
    <path d="M 206.654805 302.4576 
L 214.5519 302.4576 
L 214.5519 301.27861 
L 206.654805 301.27861 
z
" clip-path="url(#p9c570c1110)" style="fill: #264653"/>
   </g>
   <g id="patch_23">
    <path d="M 214.5519 302.4576 
L 222.448995 302.4576 
L 222.448995 296.562651 
L 214.5519 296.562651 
z
" clip-path="url(#p9c570c1110)" style="fill: #264653"/>
   </g>
   <g id="patch_24">
    <path d="M 222.448995 302.4576 
L 230.34609 302.4576 
L 230.34609 301.27861 
L 222.448995 301.27861 
z
" clip-path="url(#p9c570c1110)" style="fill: #264653"/>
   </g>
   <g id="patch_25">
    <path d="M 230.34609 302.4576 
L 238.243185 302.4576 
L 238.243185 302.4576 
L 230.34609 302.4576 
z
" clip-path="url(#p9c570c1110)" style="fill: #264653"/>
   </g>
   <g id="patch_26">
    <path d="M 238.243185 302.4576 
L 246.14028 302.4576 
L 246.14028 300.09962 
L 238.243185 300.09962 
z
" clip-path="url(#p9c570c1110)" style="fill: #264653"/>
   </g>
   <g id="patch_27">
    <path d="M 246.14028 302.4576 
L 254.037375 302.4576 
L 254.037375 301.27861 
L 246.14028 301.27861 
z
" clip-path="url(#p9c570c1110)" style="fill: #264653"/>
   </g>
   <g id="patch_28">
    <path d="M 254.037375 302.4576 
L 261.93447 302.4576 
L 261.93447 297.741641 
L 254.037375 297.741641 
z
" clip-path="url(#p9c570c1110)" style="fill: #264653"/>
   </g>
   <g id="patch_29">
    <path d="M 261.93447 302.4576 
L 269.831565 302.4576 
L 269.831565 298.92063 
L 261.93447 298.92063 
z
" clip-path="url(#p9c570c1110)" style="fill: #264653"/>
   </g>
   <g id="patch_30">
    <path d="M 269.831565 302.4576 
L 277.72866 302.4576 
L 277.72866 296.562651 
L 269.831565 296.562651 
z
" clip-path="url(#p9c570c1110)" style="fill: #264653"/>
   </g>
   <g id="patch_31">
    <path d="M 277.72866 302.4576 
L 285.625755 302.4576 
L 285.625755 298.92063 
L 277.72866 298.92063 
z
" clip-path="url(#p9c570c1110)" style="fill: #264653"/>
   </g>
   <g id="patch_32">
    <path d="M 285.625755 302.4576 
L 293.52285 302.4576 
L 293.52285 302.4576 
L 285.625755 302.4576 
z
" clip-path="url(#p9c570c1110)" style="fill: #264653"/>
   </g>
   <g id="patch_33">
    <path d="M 293.52285 302.4576 
L 301.419945 302.4576 
L 301.419945 297.741641 
L 293.52285 297.741641 
z
" clip-path="url(#p9c570c1110)" style="fill: #264653"/>
   </g>
   <g id="patch_34">
    <path d="M 301.419945 302.4576 
L 309.31704 302.4576 
L 309.31704 298.92063 
L 301.419945 298.92063 
z
" clip-path="url(#p9c570c1110)" style="fill: #264653"/>
   </g>
   <g id="patch_35">
    <path d="M 309.31704 302.4576 
L 317.214135 302.4576 
L 317.214135 300.09962 
L 309.31704 300.09962 
z
" clip-path="url(#p9c570c1110)" style="fill: #264653"/>
   </g>
   <g id="patch_36">
    <path d="M 317.214135 302.4576 
L 325.11123 302.4576 
L 325.11123 297.741641 
L 317.214135 297.741641 
z
" clip-path="url(#p9c570c1110)" style="fill: #264653"/>
   </g>
   <g id="patch_37">
    <path d="M 325.11123 302.4576 
L 333.008325 302.4576 
L 333.008325 301.27861 
L 325.11123 301.27861 
z
" clip-path="url(#p9c570c1110)" style="fill: #264653"/>
   </g>
   <g id="patch_38">
    <path d="M 333.008325 302.4576 
L 340.90542 302.4576 
L 340.90542 298.92063 
L 333.008325 298.92063 
z
" clip-path="url(#p9c570c1110)" style="fill: #264653"/>
   </g>
   <g id="patch_39">
    <path d="M 340.90542 302.4576 
L 348.802515 302.4576 
L 348.802515 300.09962 
L 340.90542 300.09962 
z
" clip-path="url(#p9c570c1110)" style="fill: #264653"/>
   </g>
   <g id="patch_40">
    <path d="M 348.802515 302.4576 
L 356.69961 302.4576 
L 356.69961 298.92063 
L 348.802515 298.92063 
z
" clip-path="url(#p9c570c1110)" style="fill: #264653"/>
   </g>
   <g id="patch_41">
    <path d="M 356.69961 302.4576 
L 364.596705 302.4576 
L 364.596705 298.92063 
L 356.69961 298.92063 
z
" clip-path="url(#p9c570c1110)" style="fill: #264653"/>
   </g>
   <g id="patch_42">
    <path d="M 364.596705 302.4576 
L 372.4938 302.4576 
L 372.4938 300.09962 
L 364.596705 300.09962 
z
" clip-path="url(#p9c570c1110)" style="fill: #264653"/>
   </g>
   <g id="patch_43">
    <path d="M 372.4938 302.4576 
L 380.390895 302.4576 
L 380.390895 302.4576 
L 372.4938 302.4576 
z
" clip-path="url(#p9c570c1110)" style="fill: #264653"/>
   </g>
   <g id="patch_44">
    <path d="M 380.390895 302.4576 
L 388.28799 302.4576 
L 388.28799 296.562651 
L 380.390895 296.562651 
z
" clip-path="url(#p9c570c1110)" style="fill: #264653"/>
   </g>
   <g id="patch_45">
    <path d="M 388.28799 302.4576 
L 396.185085 302.4576 
L 396.185085 300.09962 
L 388.28799 300.09962 
z
" clip-path="url(#p9c570c1110)" style="fill: #264653"/>
   </g>
   <g id="patch_46">
    <path d="M 396.185085 302.4576 
L 404.08218 302.4576 
L 404.08218 297.741641 
L 396.185085 297.741641 
z
" clip-path="url(#p9c570c1110)" style="fill: #264653"/>
   </g>
   <g id="patch_47">
    <path d="M 404.08218 302.4576 
L 411.979275 302.4576 
L 411.979275 301.27861 
L 404.08218 301.27861 
z
" clip-path="url(#p9c570c1110)" style="fill: #264653"/>
   </g>
   <g id="patch_48">
    <path d="M 411.979275 302.4576 
L 419.87637 302.4576 
L 419.87637 301.27861 
L 411.979275 301.27861 
z
" clip-path="url(#p9c570c1110)" style="fill: #264653"/>
   </g>
   <g id="patch_49">
    <path d="M 419.87637 302.4576 
L 427.773465 302.4576 
L 427.773465 301.27861 
L 419.87637 301.27861 
z
" clip-path="url(#p9c570c1110)" style="fill: #264653"/>
   </g>
   <g id="patch_50">
    <path d="M 427.773465 302.4576 
L 435.67056 302.4576 
L 435.67056 302.4576 
L 427.773465 302.4576 
z
" clip-path="url(#p9c570c1110)" style="fill: #264653"/>
   </g>
   <g id="patch_51">
    <path d="M 435.67056 302.4576 
L 443.567655 302.4576 
L 443.567655 302.4576 
L 435.67056 302.4576 
z
" clip-path="url(#p9c570c1110)" style="fill: #264653"/>
   </g>
   <g id="patch_52">
    <path d="M 443.567655 302.4576 
L 451.46475 302.4576 
L 451.46475 302.4576 
L 443.567655 302.4576 
z
" clip-path="url(#p9c570c1110)" style="fill: #264653"/>
   </g>
   <g id="patch_53">
    <path d="M 451.46475 302.4576 
L 459.361845 302.4576 
L 459.361845 302.4576 
L 451.46475 302.4576 
z
" clip-path="url(#p9c570c1110)" style="fill: #264653"/>
   </g>
   <g id="patch_54">
    <path d="M 459.361845 302.4576 
L 467.25894 302.4576 
L 467.25894 301.27861 
L 459.361845 301.27861 
z
" clip-path="url(#p9c570c1110)" style="fill: #264653"/>
   </g>
   <g id="patch_55">
    <path d="M 467.25894 302.4576 
L 475.156035 302.4576 
L 475.156035 301.27861 
L 467.25894 301.27861 
z
" clip-path="url(#p9c570c1110)" style="fill: #264653"/>
   </g>
   <g id="patch_56">
    <path d="M 475.156035 302.4576 
L 483.05313 302.4576 
L 483.05313 302.4576 
L 475.156035 302.4576 
z
" clip-path="url(#p9c570c1110)" style="fill: #264653"/>
   </g>
   <g id="patch_57">
    <path d="M 483.05313 302.4576 
L 490.950225 302.4576 
L 490.950225 302.4576 
L 483.05313 302.4576 
z
" clip-path="url(#p9c570c1110)" style="fill: #264653"/>
   </g>
   <g id="patch_58">
    <path d="M 490.950225 302.4576 
L 498.84732 302.4576 
L 498.84732 302.4576 
L 490.950225 302.4576 
z
" clip-path="url(#p9c570c1110)" style="fill: #264653"/>
   </g>
   <g id="patch_59">
    <path d="M 498.84732 302.4576 
L 506.744415 302.4576 
L 506.744415 298.92063 
L 498.84732 298.92063 
z
" clip-path="url(#p9c570c1110)" style="fill: #264653"/>
   </g>
   <g id="patch_60">
    <path d="M 506.744415 302.4576 
L 514.64151 302.4576 
L 514.64151 301.27861 
L 506.744415 301.27861 
z
" clip-path="url(#p9c570c1110)" style="fill: #264653"/>
   </g>
   <g id="patch_61">
    <path d="M 514.64151 302.4576 
L 522.538605 302.4576 
L 522.538605 300.09962 
L 514.64151 300.09962 
z
" clip-path="url(#p9c570c1110)" style="fill: #264653"/>
   </g>
   <g id="patch_62">
    <path d="M 522.538605 302.4576 
L 530.4357 302.4576 
L 530.4357 302.4576 
L 522.538605 302.4576 
z
" clip-path="url(#p9c570c1110)" style="fill: #264653"/>
   </g>
   <g id="patch_63">
    <path d="M 530.4357 302.4576 
L 538.332795 302.4576 
L 538.332795 298.92063 
L 530.4357 298.92063 
z
" clip-path="url(#p9c570c1110)" style="fill: #264653"/>
   </g>
   <g id="patch_64">
    <path d="M 538.332795 302.4576 
L 546.22989 302.4576 
L 546.22989 302.4576 
L 538.332795 302.4576 
z
" clip-path="url(#p9c570c1110)" style="fill: #264653"/>
   </g>
   <g id="patch_65">
    <path d="M 546.22989 302.4576 
L 554.126985 302.4576 
L 554.126985 301.27861 
L 546.22989 301.27861 
z
" clip-path="url(#p9c570c1110)" style="fill: #264653"/>
   </g>
   <g id="patch_66">
    <path d="M 554.126985 302.4576 
L 562.02408 302.4576 
L 562.02408 301.27861 
L 554.126985 301.27861 
z
" clip-path="url(#p9c570c1110)" style="fill: #264653"/>
   </g>
   <g id="patch_67">
    <path d="M 562.02408 302.4576 
L 569.921175 302.4576 
L 569.921175 301.27861 
L 562.02408 301.27861 
z
" clip-path="url(#p9c570c1110)" style="fill: #264653"/>
   </g>
   <g id="patch_68">
    <path d="M 569.921175 302.4576 
L 577.81827 302.4576 
L 577.81827 302.4576 
L 569.921175 302.4576 
z
" clip-path="url(#p9c570c1110)" style="fill: #264653"/>
   </g>
   <g id="patch_69">
    <path d="M 577.81827 302.4576 
L 585.715365 302.4576 
L 585.715365 302.4576 
L 577.81827 302.4576 
z
" clip-path="url(#p9c570c1110)" style="fill: #264653"/>
   </g>
   <g id="patch_70">
    <path d="M 585.715365 302.4576 
L 593.61246 302.4576 
L 593.61246 302.4576 
L 585.715365 302.4576 
z
" clip-path="url(#p9c570c1110)" style="fill: #264653"/>
   </g>
   <g id="patch_71">
    <path d="M 593.61246 302.4576 
L 601.509555 302.4576 
L 601.509555 302.4576 
L 593.61246 302.4576 
z
" clip-path="url(#p9c570c1110)" style="fill: #264653"/>
   </g>
   <g id="patch_72">
    <path d="M 601.509555 302.4576 
L 609.40665 302.4576 
L 609.40665 301.27861 
L 601.509555 301.27861 
z
" clip-path="url(#p9c570c1110)" style="fill: #264653"/>
   </g>
   <g id="patch_73">
    <path d="M 609.40665 302.4576 
L 617.303745 302.4576 
L 617.303745 302.4576 
L 609.40665 302.4576 
z
" clip-path="url(#p9c570c1110)" style="fill: #264653"/>
   </g>
   <g id="patch_74">
    <path d="M 617.303745 302.4576 
L 625.20084 302.4576 
L 625.20084 302.4576 
L 617.303745 302.4576 
z
" clip-path="url(#p9c570c1110)" style="fill: #264653"/>
   </g>
   <g id="patch_75">
    <path d="M 625.20084 302.4576 
L 633.097935 302.4576 
L 633.097935 302.4576 
L 625.20084 302.4576 
z
" clip-path="url(#p9c570c1110)" style="fill: #264653"/>
   </g>
   <g id="patch_76">
    <path d="M 633.097935 302.4576 
L 640.99503 302.4576 
L 640.99503 302.4576 
L 633.097935 302.4576 
z
" clip-path="url(#p9c570c1110)" style="fill: #264653"/>
   </g>
   <g id="patch_77">
    <path d="M 640.99503 302.4576 
L 648.892125 302.4576 
L 648.892125 301.27861 
L 640.99503 301.27861 
z
" clip-path="url(#p9c570c1110)" style="fill: #264653"/>
   </g>
   <g id="patch_78">
    <path d="M 648.892125 302.4576 
L 656.78922 302.4576 
L 656.78922 302.4576 
L 648.892125 302.4576 
z
" clip-path="url(#p9c570c1110)" style="fill: #264653"/>
   </g>
   <g id="patch_79">
    <path d="M 656.78922 302.4576 
L 664.686315 302.4576 
L 664.686315 301.27861 
L 656.78922 301.27861 
z
" clip-path="url(#p9c570c1110)" style="fill: #264653"/>
   </g>
   <g id="patch_80">
    <path d="M 664.686315 302.4576 
L 672.58341 302.4576 
L 672.58341 302.4576 
L 664.686315 302.4576 
z
" clip-path="url(#p9c570c1110)" style="fill: #264653"/>
   </g>
   <g id="patch_81">
    <path d="M 672.58341 302.4576 
L 680.480505 302.4576 
L 680.480505 302.4576 
L 672.58341 302.4576 
z
" clip-path="url(#p9c570c1110)" style="fill: #264653"/>
   </g>
   <g id="patch_82">
    <path d="M 680.480505 302.4576 
L 688.3776 302.4576 
L 688.3776 302.4576 
L 680.480505 302.4576 
z
" clip-path="url(#p9c570c1110)" style="fill: #264653"/>
   </g>
   <g id="patch_83">
    <path d="M 688.3776 302.4576 
L 696.274695 302.4576 
L 696.274695 302.4576 
L 688.3776 302.4576 
z
" clip-path="url(#p9c570c1110)" style="fill: #264653"/>
   </g>
   <g id="patch_84">
    <path d="M 696.274695 302.4576 
L 704.17179 302.4576 
L 704.17179 302.4576 
L 696.274695 302.4576 
z
" clip-path="url(#p9c570c1110)" style="fill: #264653"/>
   </g>
   <g id="patch_85">
    <path d="M 704.17179 302.4576 
L 712.068885 302.4576 
L 712.068885 302.4576 
L 704.17179 302.4576 
z
" clip-path="url(#p9c570c1110)" style="fill: #264653"/>
   </g>
   <g id="patch_86">
    <path d="M 712.068885 302.4576 
L 719.96598 302.4576 
L 719.96598 302.4576 
L 712.068885 302.4576 
z
" clip-path="url(#p9c570c1110)" style="fill: #264653"/>
   </g>
   <g id="patch_87">
    <path d="M 719.96598 302.4576 
L 727.863075 302.4576 
L 727.863075 302.4576 
L 719.96598 302.4576 
z
" clip-path="url(#p9c570c1110)" style="fill: #264653"/>
   </g>
   <g id="patch_88">
    <path d="M 727.863075 302.4576 
L 735.76017 302.4576 
L 735.76017 302.4576 
L 727.863075 302.4576 
z
" clip-path="url(#p9c570c1110)" style="fill: #264653"/>
   </g>
   <g id="patch_89">
    <path d="M 735.76017 302.4576 
L 743.657265 302.4576 
L 743.657265 302.4576 
L 735.76017 302.4576 
z
" clip-path="url(#p9c570c1110)" style="fill: #264653"/>
   </g>
   <g id="patch_90">
    <path d="M 743.657265 302.4576 
L 751.55436 302.4576 
L 751.55436 302.4576 
L 743.657265 302.4576 
z
" clip-path="url(#p9c570c1110)" style="fill: #264653"/>
   </g>
   <g id="patch_91">
    <path d="M 751.55436 302.4576 
L 759.451455 302.4576 
L 759.451455 302.4576 
L 751.55436 302.4576 
z
" clip-path="url(#p9c570c1110)" style="fill: #264653"/>
   </g>
   <g id="patch_92">
    <path d="M 759.451455 302.4576 
L 767.34855 302.4576 
L 767.34855 302.4576 
L 759.451455 302.4576 
z
" clip-path="url(#p9c570c1110)" style="fill: #264653"/>
   </g>
   <g id="patch_93">
    <path d="M 767.34855 302.4576 
L 775.245645 302.4576 
L 775.245645 302.4576 
L 767.34855 302.4576 
z
" clip-path="url(#p9c570c1110)" style="fill: #264653"/>
   </g>
   <g id="patch_94">
    <path d="M 775.245645 302.4576 
L 783.14274 302.4576 
L 783.14274 301.27861 
L 775.245645 301.27861 
z
" clip-path="url(#p9c570c1110)" style="fill: #264653"/>
   </g>
   <g id="matplotlib.axis_1">
    <g id="xtick_1">
     <g id="line2d_1">
      <defs>
       <path id="m4501781011" d="M 0 0 
L 0 3.5 
" style="stroke: #000000; stroke-width: 0.8"/>
      </defs>
      <g>
       <use xlink:href="#m4501781011" x="56.61" y="302.4576" style="stroke: #000000; stroke-width: 0.8"/>
      </g>
     </g>
     <g id="text_1">
      <!-- 0 -->
      <g transform="translate(52.7925 318.575725)scale(0.12 -0.12)">
       <defs>
        <path id="DejaVuSans-30" d="M 2034 4250 
Q 1547 4250 1301 3770 
Q 1056 3291 1056 2328 
Q 1056 1369 1301 889 
Q 1547 409 2034 409 
Q 2525 409 2770 889 
Q 3016 1369 3016 2328 
Q 3016 3291 2770 3770 
Q 2525 4250 2034 4250 
z
M 2034 4750 
Q 2819 4750 3233 4129 
Q 3647 3509 3647 2328 
Q 3647 1150 3233 529 
Q 2819 -91 2034 -91 
Q 1250 -91 836 529 
Q 422 1150 422 2328 
Q 422 3509 836 4129 
Q 1250 4750 2034 4750 
z
" transform="scale(0.015625)"/>
       </defs>
       <use xlink:href="#DejaVuSans-30"/>
      </g>
     </g>
    </g>
    <g id="xtick_2">
     <g id="line2d_2">
      <g>
       <use xlink:href="#m4501781011" x="100.48275" y="302.4576" style="stroke: #000000; stroke-width: 0.8"/>
      </g>
     </g>
     <g id="text_2">
      <!-- 50 -->
      <g transform="translate(92.84775 318.575725)scale(0.12 -0.12)">
       <defs>
        <path id="DejaVuSans-35" d="M 691 4666 
L 3169 4666 
L 3169 4134 
L 1269 4134 
L 1269 2991 
Q 1406 3038 1543 3061 
Q 1681 3084 1819 3084 
Q 2600 3084 3056 2656 
Q 3513 2228 3513 1497 
Q 3513 744 3044 326 
Q 2575 -91 1722 -91 
Q 1428 -91 1123 -41 
Q 819 9 494 109 
L 494 744 
Q 775 591 1075 516 
Q 1375 441 1709 441 
Q 2250 441 2565 725 
Q 2881 1009 2881 1497 
Q 2881 1984 2565 2268 
Q 2250 2553 1709 2553 
Q 1456 2553 1204 2497 
Q 953 2441 691 2322 
L 691 4666 
z
" transform="scale(0.015625)"/>
       </defs>
       <use xlink:href="#DejaVuSans-35"/>
       <use xlink:href="#DejaVuSans-30" x="63.623047"/>
      </g>
     </g>
    </g>
    <g id="xtick_3">
     <g id="line2d_3">
      <g>
       <use xlink:href="#m4501781011" x="144.3555" y="302.4576" style="stroke: #000000; stroke-width: 0.8"/>
      </g>
     </g>
     <g id="text_3">
      <!-- 100 -->
      <g transform="translate(132.903 318.575725)scale(0.12 -0.12)">
       <defs>
        <path id="DejaVuSans-31" d="M 794 531 
L 1825 531 
L 1825 4091 
L 703 3866 
L 703 4441 
L 1819 4666 
L 2450 4666 
L 2450 531 
L 3481 531 
L 3481 0 
L 794 0 
L 794 531 
z
" transform="scale(0.015625)"/>
       </defs>
       <use xlink:href="#DejaVuSans-31"/>
       <use xlink:href="#DejaVuSans-30" x="63.623047"/>
       <use xlink:href="#DejaVuSans-30" x="127.246094"/>
      </g>
     </g>
    </g>
    <g id="xtick_4">
     <g id="line2d_4">
      <g>
       <use xlink:href="#m4501781011" x="188.22825" y="302.4576" style="stroke: #000000; stroke-width: 0.8"/>
      </g>
     </g>
     <g id="text_4">
      <!-- 150 -->
      <g transform="translate(176.77575 318.575725)scale(0.12 -0.12)">
       <use xlink:href="#DejaVuSans-31"/>
       <use xlink:href="#DejaVuSans-35" x="63.623047"/>
       <use xlink:href="#DejaVuSans-30" x="127.246094"/>
      </g>
     </g>
    </g>
    <g id="xtick_5">
     <g id="line2d_5">
      <g>
       <use xlink:href="#m4501781011" x="232.101" y="302.4576" style="stroke: #000000; stroke-width: 0.8"/>
      </g>
     </g>
     <g id="text_5">
      <!-- 200 -->
      <g transform="translate(220.6485 318.575725)scale(0.12 -0.12)">
       <defs>
        <path id="DejaVuSans-32" d="M 1228 531 
L 3431 531 
L 3431 0 
L 469 0 
L 469 531 
Q 828 903 1448 1529 
Q 2069 2156 2228 2338 
Q 2531 2678 2651 2914 
Q 2772 3150 2772 3378 
Q 2772 3750 2511 3984 
Q 2250 4219 1831 4219 
Q 1534 4219 1204 4116 
Q 875 4013 500 3803 
L 500 4441 
Q 881 4594 1212 4672 
Q 1544 4750 1819 4750 
Q 2544 4750 2975 4387 
Q 3406 4025 3406 3419 
Q 3406 3131 3298 2873 
Q 3191 2616 2906 2266 
Q 2828 2175 2409 1742 
Q 1991 1309 1228 531 
z
" transform="scale(0.015625)"/>
       </defs>
       <use xlink:href="#DejaVuSans-32"/>
       <use xlink:href="#DejaVuSans-30" x="63.623047"/>
       <use xlink:href="#DejaVuSans-30" x="127.246094"/>
      </g>
     </g>
    </g>
    <g id="xtick_6">
     <g id="line2d_6">
      <g>
       <use xlink:href="#m4501781011" x="275.97375" y="302.4576" style="stroke: #000000; stroke-width: 0.8"/>
      </g>
     </g>
     <g id="text_6">
      <!-- 250 -->
      <g transform="translate(264.52125 318.575725)scale(0.12 -0.12)">
       <use xlink:href="#DejaVuSans-32"/>
       <use xlink:href="#DejaVuSans-35" x="63.623047"/>
       <use xlink:href="#DejaVuSans-30" x="127.246094"/>
      </g>
     </g>
    </g>
    <g id="xtick_7">
     <g id="line2d_7">
      <g>
       <use xlink:href="#m4501781011" x="319.8465" y="302.4576" style="stroke: #000000; stroke-width: 0.8"/>
      </g>
     </g>
     <g id="text_7">
      <!-- 300 -->
      <g transform="translate(308.394 318.575725)scale(0.12 -0.12)">
       <defs>
        <path id="DejaVuSans-33" d="M 2597 2516 
Q 3050 2419 3304 2112 
Q 3559 1806 3559 1356 
Q 3559 666 3084 287 
Q 2609 -91 1734 -91 
Q 1441 -91 1130 -33 
Q 819 25 488 141 
L 488 750 
Q 750 597 1062 519 
Q 1375 441 1716 441 
Q 2309 441 2620 675 
Q 2931 909 2931 1356 
Q 2931 1769 2642 2001 
Q 2353 2234 1838 2234 
L 1294 2234 
L 1294 2753 
L 1863 2753 
Q 2328 2753 2575 2939 
Q 2822 3125 2822 3475 
Q 2822 3834 2567 4026 
Q 2313 4219 1838 4219 
Q 1578 4219 1281 4162 
Q 984 4106 628 3988 
L 628 4550 
Q 988 4650 1302 4700 
Q 1616 4750 1894 4750 
Q 2613 4750 3031 4423 
Q 3450 4097 3450 3541 
Q 3450 3153 3228 2886 
Q 3006 2619 2597 2516 
z
" transform="scale(0.015625)"/>
       </defs>
       <use xlink:href="#DejaVuSans-33"/>
       <use xlink:href="#DejaVuSans-30" x="63.623047"/>
       <use xlink:href="#DejaVuSans-30" x="127.246094"/>
      </g>
     </g>
    </g>
    <g id="xtick_8">
     <g id="line2d_8">
      <g>
       <use xlink:href="#m4501781011" x="363.71925" y="302.4576" style="stroke: #000000; stroke-width: 0.8"/>
      </g>
     </g>
     <g id="text_8">
      <!-- 350 -->
      <g transform="translate(352.26675 318.575725)scale(0.12 -0.12)">
       <use xlink:href="#DejaVuSans-33"/>
       <use xlink:href="#DejaVuSans-35" x="63.623047"/>
       <use xlink:href="#DejaVuSans-30" x="127.246094"/>
      </g>
     </g>
    </g>
    <g id="xtick_9">
     <g id="line2d_9">
      <g>
       <use xlink:href="#m4501781011" x="407.592" y="302.4576" style="stroke: #000000; stroke-width: 0.8"/>
      </g>
     </g>
     <g id="text_9">
      <!-- 400 -->
      <g transform="translate(396.1395 318.575725)scale(0.12 -0.12)">
       <defs>
        <path id="DejaVuSans-34" d="M 2419 4116 
L 825 1625 
L 2419 1625 
L 2419 4116 
z
M 2253 4666 
L 3047 4666 
L 3047 1625 
L 3713 1625 
L 3713 1100 
L 3047 1100 
L 3047 0 
L 2419 0 
L 2419 1100 
L 313 1100 
L 313 1709 
L 2253 4666 
z
" transform="scale(0.015625)"/>
       </defs>
       <use xlink:href="#DejaVuSans-34"/>
       <use xlink:href="#DejaVuSans-30" x="63.623047"/>
       <use xlink:href="#DejaVuSans-30" x="127.246094"/>
      </g>
     </g>
    </g>
    <g id="text_10">
     <!-- Interspike interval [ms] -->
     <g transform="translate(150.464594 335.709162)scale(0.14 -0.14)">
      <defs>
       <path id="DejaVuSans-49" d="M 628 4666 
L 1259 4666 
L 1259 0 
L 628 0 
L 628 4666 
z
" transform="scale(0.015625)"/>
       <path id="DejaVuSans-6e" d="M 3513 2113 
L 3513 0 
L 2938 0 
L 2938 2094 
Q 2938 2591 2744 2837 
Q 2550 3084 2163 3084 
Q 1697 3084 1428 2787 
Q 1159 2491 1159 1978 
L 1159 0 
L 581 0 
L 581 3500 
L 1159 3500 
L 1159 2956 
Q 1366 3272 1645 3428 
Q 1925 3584 2291 3584 
Q 2894 3584 3203 3211 
Q 3513 2838 3513 2113 
z
" transform="scale(0.015625)"/>
       <path id="DejaVuSans-74" d="M 1172 4494 
L 1172 3500 
L 2356 3500 
L 2356 3053 
L 1172 3053 
L 1172 1153 
Q 1172 725 1289 603 
Q 1406 481 1766 481 
L 2356 481 
L 2356 0 
L 1766 0 
Q 1100 0 847 248 
Q 594 497 594 1153 
L 594 3053 
L 172 3053 
L 172 3500 
L 594 3500 
L 594 4494 
L 1172 4494 
z
" transform="scale(0.015625)"/>
       <path id="DejaVuSans-65" d="M 3597 1894 
L 3597 1613 
L 953 1613 
Q 991 1019 1311 708 
Q 1631 397 2203 397 
Q 2534 397 2845 478 
Q 3156 559 3463 722 
L 3463 178 
Q 3153 47 2828 -22 
Q 2503 -91 2169 -91 
Q 1331 -91 842 396 
Q 353 884 353 1716 
Q 353 2575 817 3079 
Q 1281 3584 2069 3584 
Q 2775 3584 3186 3129 
Q 3597 2675 3597 1894 
z
M 3022 2063 
Q 3016 2534 2758 2815 
Q 2500 3097 2075 3097 
Q 1594 3097 1305 2825 
Q 1016 2553 972 2059 
L 3022 2063 
z
" transform="scale(0.015625)"/>
       <path id="DejaVuSans-72" d="M 2631 2963 
Q 2534 3019 2420 3045 
Q 2306 3072 2169 3072 
Q 1681 3072 1420 2755 
Q 1159 2438 1159 1844 
L 1159 0 
L 581 0 
L 581 3500 
L 1159 3500 
L 1159 2956 
Q 1341 3275 1631 3429 
Q 1922 3584 2338 3584 
Q 2397 3584 2469 3576 
Q 2541 3569 2628 3553 
L 2631 2963 
z
" transform="scale(0.015625)"/>
       <path id="DejaVuSans-73" d="M 2834 3397 
L 2834 2853 
Q 2591 2978 2328 3040 
Q 2066 3103 1784 3103 
Q 1356 3103 1142 2972 
Q 928 2841 928 2578 
Q 928 2378 1081 2264 
Q 1234 2150 1697 2047 
L 1894 2003 
Q 2506 1872 2764 1633 
Q 3022 1394 3022 966 
Q 3022 478 2636 193 
Q 2250 -91 1575 -91 
Q 1294 -91 989 -36 
Q 684 19 347 128 
L 347 722 
Q 666 556 975 473 
Q 1284 391 1588 391 
Q 1994 391 2212 530 
Q 2431 669 2431 922 
Q 2431 1156 2273 1281 
Q 2116 1406 1581 1522 
L 1381 1569 
Q 847 1681 609 1914 
Q 372 2147 372 2553 
Q 372 3047 722 3315 
Q 1072 3584 1716 3584 
Q 2034 3584 2315 3537 
Q 2597 3491 2834 3397 
z
" transform="scale(0.015625)"/>
       <path id="DejaVuSans-70" d="M 1159 525 
L 1159 -1331 
L 581 -1331 
L 581 3500 
L 1159 3500 
L 1159 2969 
Q 1341 3281 1617 3432 
Q 1894 3584 2278 3584 
Q 2916 3584 3314 3078 
Q 3713 2572 3713 1747 
Q 3713 922 3314 415 
Q 2916 -91 2278 -91 
Q 1894 -91 1617 61 
Q 1341 213 1159 525 
z
M 3116 1747 
Q 3116 2381 2855 2742 
Q 2594 3103 2138 3103 
Q 1681 3103 1420 2742 
Q 1159 2381 1159 1747 
Q 1159 1113 1420 752 
Q 1681 391 2138 391 
Q 2594 391 2855 752 
Q 3116 1113 3116 1747 
z
" transform="scale(0.015625)"/>
       <path id="DejaVuSans-69" d="M 603 3500 
L 1178 3500 
L 1178 0 
L 603 0 
L 603 3500 
z
M 603 4863 
L 1178 4863 
L 1178 4134 
L 603 4134 
L 603 4863 
z
" transform="scale(0.015625)"/>
       <path id="DejaVuSans-6b" d="M 581 4863 
L 1159 4863 
L 1159 1991 
L 2875 3500 
L 3609 3500 
L 1753 1863 
L 3688 0 
L 2938 0 
L 1159 1709 
L 1159 0 
L 581 0 
L 581 4863 
z
" transform="scale(0.015625)"/>
       <path id="DejaVuSans-20" transform="scale(0.015625)"/>
       <path id="DejaVuSans-76" d="M 191 3500 
L 800 3500 
L 1894 563 
L 2988 3500 
L 3597 3500 
L 2284 0 
L 1503 0 
L 191 3500 
z
" transform="scale(0.015625)"/>
       <path id="DejaVuSans-61" d="M 2194 1759 
Q 1497 1759 1228 1600 
Q 959 1441 959 1056 
Q 959 750 1161 570 
Q 1363 391 1709 391 
Q 2188 391 2477 730 
Q 2766 1069 2766 1631 
L 2766 1759 
L 2194 1759 
z
M 3341 1997 
L 3341 0 
L 2766 0 
L 2766 531 
Q 2569 213 2275 61 
Q 1981 -91 1556 -91 
Q 1019 -91 701 211 
Q 384 513 384 1019 
Q 384 1609 779 1909 
Q 1175 2209 1959 2209 
L 2766 2209 
L 2766 2266 
Q 2766 2663 2505 2880 
Q 2244 3097 1772 3097 
Q 1472 3097 1187 3025 
Q 903 2953 641 2809 
L 641 3341 
Q 956 3463 1253 3523 
Q 1550 3584 1831 3584 
Q 2591 3584 2966 3190 
Q 3341 2797 3341 1997 
z
" transform="scale(0.015625)"/>
       <path id="DejaVuSans-6c" d="M 603 4863 
L 1178 4863 
L 1178 0 
L 603 0 
L 603 4863 
z
" transform="scale(0.015625)"/>
       <path id="DejaVuSans-5b" d="M 550 4863 
L 1875 4863 
L 1875 4416 
L 1125 4416 
L 1125 -397 
L 1875 -397 
L 1875 -844 
L 550 -844 
L 550 4863 
z
" transform="scale(0.015625)"/>
       <path id="DejaVuSans-6d" d="M 3328 2828 
Q 3544 3216 3844 3400 
Q 4144 3584 4550 3584 
Q 5097 3584 5394 3201 
Q 5691 2819 5691 2113 
L 5691 0 
L 5113 0 
L 5113 2094 
Q 5113 2597 4934 2840 
Q 4756 3084 4391 3084 
Q 3944 3084 3684 2787 
Q 3425 2491 3425 1978 
L 3425 0 
L 2847 0 
L 2847 2094 
Q 2847 2600 2669 2842 
Q 2491 3084 2119 3084 
Q 1678 3084 1418 2786 
Q 1159 2488 1159 1978 
L 1159 0 
L 581 0 
L 581 3500 
L 1159 3500 
L 1159 2956 
Q 1356 3278 1631 3431 
Q 1906 3584 2284 3584 
Q 2666 3584 2933 3390 
Q 3200 3197 3328 2828 
z
" transform="scale(0.015625)"/>
       <path id="DejaVuSans-5d" d="M 1947 4863 
L 1947 -844 
L 622 -844 
L 622 -397 
L 1369 -397 
L 1369 4416 
L 622 4416 
L 622 4863 
L 1947 4863 
z
" transform="scale(0.015625)"/>
      </defs>
      <use xlink:href="#DejaVuSans-49"/>
      <use xlink:href="#DejaVuSans-6e" x="29.492188"/>
      <use xlink:href="#DejaVuSans-74" x="92.871094"/>
      <use xlink:href="#DejaVuSans-65" x="132.080078"/>
      <use xlink:href="#DejaVuSans-72" x="193.603516"/>
      <use xlink:href="#DejaVuSans-73" x="234.716797"/>
      <use xlink:href="#DejaVuSans-70" x="286.816406"/>
      <use xlink:href="#DejaVuSans-69" x="350.292969"/>
      <use xlink:href="#DejaVuSans-6b" x="378.076172"/>
      <use xlink:href="#DejaVuSans-65" x="432.361328"/>
      <use xlink:href="#DejaVuSans-20" x="493.884766"/>
      <use xlink:href="#DejaVuSans-69" x="525.671875"/>
      <use xlink:href="#DejaVuSans-6e" x="553.455078"/>
      <use xlink:href="#DejaVuSans-74" x="616.833984"/>
      <use xlink:href="#DejaVuSans-65" x="656.042969"/>
      <use xlink:href="#DejaVuSans-72" x="717.566406"/>
      <use xlink:href="#DejaVuSans-76" x="758.679688"/>
      <use xlink:href="#DejaVuSans-61" x="817.859375"/>
      <use xlink:href="#DejaVuSans-6c" x="879.138672"/>
      <use xlink:href="#DejaVuSans-20" x="906.921875"/>
      <use xlink:href="#DejaVuSans-5b" x="938.708984"/>
      <use xlink:href="#DejaVuSans-6d" x="977.722656"/>
      <use xlink:href="#DejaVuSans-73" x="1075.134766"/>
      <use xlink:href="#DejaVuSans-5d" x="1127.234375"/>
     </g>
    </g>
   </g>
   <g id="matplotlib.axis_2">
    <g id="ytick_1">
     <g id="line2d_10">
      <defs>
       <path id="me8bb08d619" d="M 0 0 
L -3.5 0 
" style="stroke: #000000; stroke-width: 0.8"/>
      </defs>
      <g>
       <use xlink:href="#me8bb08d619" x="56.61" y="302.4576" style="stroke: #000000; stroke-width: 0.8"/>
      </g>
     </g>
     <g id="text_11">
      <!-- 0 -->
      <g transform="translate(41.975 307.016662)scale(0.12 -0.12)">
       <use xlink:href="#DejaVuSans-30"/>
      </g>
     </g>
    </g>
    <g id="ytick_2">
     <g id="line2d_11">
      <g>
       <use xlink:href="#me8bb08d619" x="56.61" y="264.576656" style="stroke: #000000; stroke-width: 0.8"/>
      </g>
     </g>
     <g id="text_12">
      <!-- 10 -->
      <g transform="translate(34.34 269.135718)scale(0.12 -0.12)">
       <use xlink:href="#DejaVuSans-31"/>
       <use xlink:href="#DejaVuSans-30" x="63.623047"/>
      </g>
     </g>
    </g>
    <g id="ytick_3">
     <g id="line2d_12">
      <g>
       <use xlink:href="#me8bb08d619" x="56.61" y="226.695711" style="stroke: #000000; stroke-width: 0.8"/>
      </g>
     </g>
     <g id="text_13">
      <!-- 20 -->
      <g transform="translate(34.34 231.254774)scale(0.12 -0.12)">
       <use xlink:href="#DejaVuSans-32"/>
       <use xlink:href="#DejaVuSans-30" x="63.623047"/>
      </g>
     </g>
    </g>
    <g id="ytick_4">
     <g id="line2d_13">
      <g>
       <use xlink:href="#me8bb08d619" x="56.61" y="188.814767" style="stroke: #000000; stroke-width: 0.8"/>
      </g>
     </g>
     <g id="text_14">
      <!-- 30 -->
      <g transform="translate(34.34 193.37383)scale(0.12 -0.12)">
       <use xlink:href="#DejaVuSans-33"/>
       <use xlink:href="#DejaVuSans-30" x="63.623047"/>
      </g>
     </g>
    </g>
    <g id="ytick_5">
     <g id="line2d_14">
      <g>
       <use xlink:href="#me8bb08d619" x="56.61" y="150.933823" style="stroke: #000000; stroke-width: 0.8"/>
      </g>
     </g>
     <g id="text_15">
      <!-- 40 -->
      <g transform="translate(34.34 155.492885)scale(0.12 -0.12)">
       <use xlink:href="#DejaVuSans-34"/>
       <use xlink:href="#DejaVuSans-30" x="63.623047"/>
      </g>
     </g>
    </g>
    <g id="ytick_6">
     <g id="line2d_15">
      <g>
       <use xlink:href="#me8bb08d619" x="56.61" y="113.052879" style="stroke: #000000; stroke-width: 0.8"/>
      </g>
     </g>
     <g id="text_16">
      <!-- 50 -->
      <g transform="translate(34.34 117.611941)scale(0.12 -0.12)">
       <use xlink:href="#DejaVuSans-35"/>
       <use xlink:href="#DejaVuSans-30" x="63.623047"/>
      </g>
     </g>
    </g>
    <g id="ytick_7">
     <g id="line2d_16">
      <g>
       <use xlink:href="#me8bb08d619" x="56.61" y="75.171934" style="stroke: #000000; stroke-width: 0.8"/>
      </g>
     </g>
     <g id="text_17">
      <!-- 60 -->
      <g transform="translate(34.34 79.730997)scale(0.12 -0.12)">
       <defs>
        <path id="DejaVuSans-36" d="M 2113 2584 
Q 1688 2584 1439 2293 
Q 1191 2003 1191 1497 
Q 1191 994 1439 701 
Q 1688 409 2113 409 
Q 2538 409 2786 701 
Q 3034 994 3034 1497 
Q 3034 2003 2786 2293 
Q 2538 2584 2113 2584 
z
M 3366 4563 
L 3366 3988 
Q 3128 4100 2886 4159 
Q 2644 4219 2406 4219 
Q 1781 4219 1451 3797 
Q 1122 3375 1075 2522 
Q 1259 2794 1537 2939 
Q 1816 3084 2150 3084 
Q 2853 3084 3261 2657 
Q 3669 2231 3669 1497 
Q 3669 778 3244 343 
Q 2819 -91 2113 -91 
Q 1303 -91 875 529 
Q 447 1150 447 2328 
Q 447 3434 972 4092 
Q 1497 4750 2381 4750 
Q 2619 4750 2861 4703 
Q 3103 4656 3366 4563 
z
" transform="scale(0.015625)"/>
       </defs>
       <use xlink:href="#DejaVuSans-36"/>
       <use xlink:href="#DejaVuSans-30" x="63.623047"/>
      </g>
     </g>
    </g>
    <g id="text_18">
     <!-- p(ISI) [1/s] -->
     <g transform="translate(27.428438 208.244513)rotate(-90)scale(0.14 -0.14)">
      <defs>
       <path id="DejaVuSans-28" d="M 1984 4856 
Q 1566 4138 1362 3434 
Q 1159 2731 1159 2009 
Q 1159 1288 1364 580 
Q 1569 -128 1984 -844 
L 1484 -844 
Q 1016 -109 783 600 
Q 550 1309 550 2009 
Q 550 2706 781 3412 
Q 1013 4119 1484 4856 
L 1984 4856 
z
" transform="scale(0.015625)"/>
       <path id="DejaVuSans-53" d="M 3425 4513 
L 3425 3897 
Q 3066 4069 2747 4153 
Q 2428 4238 2131 4238 
Q 1616 4238 1336 4038 
Q 1056 3838 1056 3469 
Q 1056 3159 1242 3001 
Q 1428 2844 1947 2747 
L 2328 2669 
Q 3034 2534 3370 2195 
Q 3706 1856 3706 1288 
Q 3706 609 3251 259 
Q 2797 -91 1919 -91 
Q 1588 -91 1214 -16 
Q 841 59 441 206 
L 441 856 
Q 825 641 1194 531 
Q 1563 422 1919 422 
Q 2459 422 2753 634 
Q 3047 847 3047 1241 
Q 3047 1584 2836 1778 
Q 2625 1972 2144 2069 
L 1759 2144 
Q 1053 2284 737 2584 
Q 422 2884 422 3419 
Q 422 4038 858 4394 
Q 1294 4750 2059 4750 
Q 2388 4750 2728 4690 
Q 3069 4631 3425 4513 
z
" transform="scale(0.015625)"/>
       <path id="DejaVuSans-29" d="M 513 4856 
L 1013 4856 
Q 1481 4119 1714 3412 
Q 1947 2706 1947 2009 
Q 1947 1309 1714 600 
Q 1481 -109 1013 -844 
L 513 -844 
Q 928 -128 1133 580 
Q 1338 1288 1338 2009 
Q 1338 2731 1133 3434 
Q 928 4138 513 4856 
z
" transform="scale(0.015625)"/>
       <path id="DejaVuSans-2f" d="M 1625 4666 
L 2156 4666 
L 531 -594 
L 0 -594 
L 1625 4666 
z
" transform="scale(0.015625)"/>
      </defs>
      <use xlink:href="#DejaVuSans-70"/>
      <use xlink:href="#DejaVuSans-28" x="63.476562"/>
      <use xlink:href="#DejaVuSans-49" x="102.490234"/>
      <use xlink:href="#DejaVuSans-53" x="131.982422"/>
      <use xlink:href="#DejaVuSans-49" x="195.458984"/>
      <use xlink:href="#DejaVuSans-29" x="224.951172"/>
      <use xlink:href="#DejaVuSans-20" x="263.964844"/>
      <use xlink:href="#DejaVuSans-5b" x="295.751953"/>
      <use xlink:href="#DejaVuSans-31" x="334.765625"/>
      <use xlink:href="#DejaVuSans-2f" x="398.388672"/>
      <use xlink:href="#DejaVuSans-73" x="432.080078"/>
      <use xlink:href="#DejaVuSans-5d" x="484.179688"/>
     </g>
    </g>
   </g>
   <g id="patch_95">
    <path d="M 56.61 302.4576 
L 56.61 40.7808 
" style="fill: none; stroke: #000000; stroke-width: 0.8; stroke-linejoin: miter; stroke-linecap: square"/>
   </g>
   <g id="patch_96">
    <path d="M 56.61 302.4576 
L 407.592 302.4576 
" style="fill: none; stroke: #000000; stroke-width: 0.8; stroke-linejoin: miter; stroke-linecap: square"/>
   </g>
   <g id="text_19">
    <!-- $\mu_{ISI} = 99.3$ms -->
    <g transform="translate(319.8465 66.94848)scale(0.14 -0.14)">
     <defs>
      <path id="DejaVuSans-Oblique-3bc" d="M -84 -1331 
L 856 3500 
L 1434 3500 
L 1009 1322 
Q 997 1256 987 1175 
Q 978 1094 978 1013 
Q 978 722 1161 565 
Q 1344 409 1684 409 
Q 2147 409 2431 671 
Q 2716 934 2816 1459 
L 3213 3500 
L 3788 3500 
L 3266 809 
Q 3253 750 3248 706 
Q 3244 663 3244 628 
Q 3244 531 3283 486 
Q 3322 441 3406 441 
Q 3438 441 3492 456 
Q 3547 472 3647 513 
L 3559 50 
Q 3422 -19 3297 -55 
Q 3172 -91 3053 -91 
Q 2847 -91 2730 40 
Q 2613 172 2613 403 
Q 2438 153 2195 31 
Q 1953 -91 1625 -91 
Q 1334 -91 1117 43 
Q 900 178 831 397 
L 494 -1331 
L -84 -1331 
z
" transform="scale(0.015625)"/>
      <path id="DejaVuSans-Oblique-49" d="M 1081 4666 
L 1716 4666 
L 806 0 
L 172 0 
L 1081 4666 
z
" transform="scale(0.015625)"/>
      <path id="DejaVuSans-Oblique-53" d="M 3859 4513 
L 3738 3897 
Q 3422 4066 3111 4152 
Q 2800 4238 2509 4238 
Q 1944 4238 1609 3991 
Q 1275 3744 1275 3334 
Q 1275 3109 1398 2989 
Q 1522 2869 2034 2731 
L 2413 2638 
Q 3053 2472 3303 2217 
Q 3553 1963 3553 1503 
Q 3553 797 2998 353 
Q 2444 -91 1538 -91 
Q 1166 -91 791 -17 
Q 416 56 38 206 
L 166 856 
Q 513 641 861 531 
Q 1209 422 1556 422 
Q 2147 422 2503 684 
Q 2859 947 2859 1369 
Q 2859 1650 2717 1795 
Q 2575 1941 2106 2059 
L 1728 2156 
Q 1081 2325 845 2545 
Q 609 2766 609 3163 
Q 609 3859 1145 4304 
Q 1681 4750 2541 4750 
Q 2875 4750 3203 4690 
Q 3531 4631 3859 4513 
z
" transform="scale(0.015625)"/>
      <path id="DejaVuSans-3d" d="M 678 2906 
L 4684 2906 
L 4684 2381 
L 678 2381 
L 678 2906 
z
M 678 1631 
L 4684 1631 
L 4684 1100 
L 678 1100 
L 678 1631 
z
" transform="scale(0.015625)"/>
      <path id="DejaVuSans-39" d="M 703 97 
L 703 672 
Q 941 559 1184 500 
Q 1428 441 1663 441 
Q 2288 441 2617 861 
Q 2947 1281 2994 2138 
Q 2813 1869 2534 1725 
Q 2256 1581 1919 1581 
Q 1219 1581 811 2004 
Q 403 2428 403 3163 
Q 403 3881 828 4315 
Q 1253 4750 1959 4750 
Q 2769 4750 3195 4129 
Q 3622 3509 3622 2328 
Q 3622 1225 3098 567 
Q 2575 -91 1691 -91 
Q 1453 -91 1209 -44 
Q 966 3 703 97 
z
M 1959 2075 
Q 2384 2075 2632 2365 
Q 2881 2656 2881 3163 
Q 2881 3666 2632 3958 
Q 2384 4250 1959 4250 
Q 1534 4250 1286 3958 
Q 1038 3666 1038 3163 
Q 1038 2656 1286 2365 
Q 1534 2075 1959 2075 
z
" transform="scale(0.015625)"/>
      <path id="DejaVuSans-2e" d="M 684 794 
L 1344 794 
L 1344 0 
L 684 0 
L 684 794 
z
" transform="scale(0.015625)"/>
     </defs>
     <use xlink:href="#DejaVuSans-Oblique-3bc" transform="translate(0 0.78125)"/>
     <use xlink:href="#DejaVuSans-Oblique-49" transform="translate(63.623047 -15.625)scale(0.7)"/>
     <use xlink:href="#DejaVuSans-Oblique-53" transform="translate(84.267578 -15.625)scale(0.7)"/>
     <use xlink:href="#DejaVuSans-Oblique-49" transform="translate(128.701172 -15.625)scale(0.7)"/>
     <use xlink:href="#DejaVuSans-3d" transform="translate(171.5625 0.78125)"/>
     <use xlink:href="#DejaVuSans-39" transform="translate(274.833984 0.78125)"/>
     <use xlink:href="#DejaVuSans-39" transform="translate(338.457031 0.78125)"/>
     <use xlink:href="#DejaVuSans-2e" transform="translate(402.080078 0.78125)"/>
     <use xlink:href="#DejaVuSans-33" transform="translate(433.867188 0.78125)"/>
     <use xlink:href="#DejaVuSans-6d" transform="translate(497.490234 0.78125)"/>
     <use xlink:href="#DejaVuSans-73" transform="translate(594.902344 0.78125)"/>
    </g>
   </g>
   <g id="text_20">
    <!-- $\sigma_{ISI} = 157.6$ms -->
    <g transform="translate(319.8465 93.11616)scale(0.14 -0.14)">
     <defs>
      <path id="DejaVuSans-Oblique-3c3" d="M 2219 3044 
Q 1744 3044 1422 2700 
Q 1081 2341 969 1747 
Q 844 1119 1044 756 
Q 1241 397 1706 397 
Q 2166 397 2503 759 
Q 2844 1122 2966 1747 
Q 3075 2319 2881 2700 
Q 2700 3044 2219 3044 
z
M 2309 3503 
L 4219 3500 
L 4106 2925 
L 3463 2925 
Q 3706 2438 3575 1747 
Q 3406 888 2884 400 
Q 2359 -91 1609 -91 
Q 856 -91 525 400 
Q 194 888 363 1747 
Q 528 2609 1050 3097 
Q 1484 3503 2309 3503 
z
" transform="scale(0.015625)"/>
      <path id="DejaVuSans-37" d="M 525 4666 
L 3525 4666 
L 3525 4397 
L 1831 0 
L 1172 0 
L 2766 4134 
L 525 4134 
L 525 4666 
z
" transform="scale(0.015625)"/>
     </defs>
     <use xlink:href="#DejaVuSans-Oblique-3c3" transform="translate(0 0.78125)"/>
     <use xlink:href="#DejaVuSans-Oblique-49" transform="translate(63.378906 -15.625)scale(0.7)"/>
     <use xlink:href="#DejaVuSans-Oblique-53" transform="translate(84.023438 -15.625)scale(0.7)"/>
     <use xlink:href="#DejaVuSans-Oblique-49" transform="translate(128.457031 -15.625)scale(0.7)"/>
     <use xlink:href="#DejaVuSans-3d" transform="translate(171.318359 0.78125)"/>
     <use xlink:href="#DejaVuSans-31" transform="translate(274.589844 0.78125)"/>
     <use xlink:href="#DejaVuSans-35" transform="translate(338.212891 0.78125)"/>
     <use xlink:href="#DejaVuSans-37" transform="translate(394.585938 0.78125)"/>
     <use xlink:href="#DejaVuSans-2e" transform="translate(458.208984 0.78125)"/>
     <use xlink:href="#DejaVuSans-36" transform="translate(489.996094 0.78125)"/>
     <use xlink:href="#DejaVuSans-6d" transform="translate(553.619141 0.78125)"/>
     <use xlink:href="#DejaVuSans-73" transform="translate(651.03125 0.78125)"/>
    </g>
   </g>
   <g id="text_21">
    <!-- CV = 1.59 -->
    <g transform="translate(319.8465 119.28384)scale(0.14 -0.14)">
     <defs>
      <path id="DejaVuSans-43" d="M 4122 4306 
L 4122 3641 
Q 3803 3938 3442 4084 
Q 3081 4231 2675 4231 
Q 1875 4231 1450 3742 
Q 1025 3253 1025 2328 
Q 1025 1406 1450 917 
Q 1875 428 2675 428 
Q 3081 428 3442 575 
Q 3803 722 4122 1019 
L 4122 359 
Q 3791 134 3420 21 
Q 3050 -91 2638 -91 
Q 1578 -91 968 557 
Q 359 1206 359 2328 
Q 359 3453 968 4101 
Q 1578 4750 2638 4750 
Q 3056 4750 3426 4639 
Q 3797 4528 4122 4306 
z
" transform="scale(0.015625)"/>
      <path id="DejaVuSans-56" d="M 1831 0 
L 50 4666 
L 709 4666 
L 2188 738 
L 3669 4666 
L 4325 4666 
L 2547 0 
L 1831 0 
z
" transform="scale(0.015625)"/>
     </defs>
     <use xlink:href="#DejaVuSans-43"/>
     <use xlink:href="#DejaVuSans-56" x="69.824219"/>
     <use xlink:href="#DejaVuSans-20" x="138.232422"/>
     <use xlink:href="#DejaVuSans-3d" x="170.019531"/>
     <use xlink:href="#DejaVuSans-20" x="253.808594"/>
     <use xlink:href="#DejaVuSans-31" x="285.595703"/>
     <use xlink:href="#DejaVuSans-2e" x="349.21875"/>
     <use xlink:href="#DejaVuSans-35" x="381.005859"/>
     <use xlink:href="#DejaVuSans-39" x="444.628906"/>
    </g>
   </g>
  </g>
 </g>
 <defs>
  <clipPath id="p9c570c1110">
   <rect x="56.61" y="40.7808" width="350.982" height="261.6768"/>
  </clipPath>
 </defs>
</svg>
