<?xml version="1.0" encoding="utf-8" standalone="no"?>
<!DOCTYPE svg PUBLIC "-//W3C//DTD SVG 1.1//EN"
  "http://www.w3.org/Graphics/SVG/1.1/DTD/svg11.dtd">
<svg xmlns:xlink="http://www.w3.org/1999/xlink" width="452.88pt" height="339.84pt" viewBox="0 0 452.88 339.84" xmlns="http://www.w3.org/2000/svg" version="1.1">
 <metadata>
  <rdf:RDF xmlns:dc="http://purl.org/dc/elements/1.1/" xmlns:cc="http://creativecommons.org/ns#" xmlns:rdf="http://www.w3.org/1999/02/22-rdf-syntax-ns#">
   <cc:Work>
    <dc:type rdf:resource="http://purl.org/dc/dcmitype/StillImage"/>
    <dc:date>2022-11-03T19:51:33.887008</dc:date>
    <dc:format>image/svg+xml</dc:format>
    <dc:creator>
     <cc:Agent>
      <dc:title>Matplotlib v3.5.3, https://matplotlib.org/</dc:title>
     </cc:Agent>
    </dc:creator>
   </cc:Work>
  </rdf:RDF>
 </metadata>
 <defs>
  <style type="text/css">*{stroke-linejoin: round; stroke-linecap: butt}</style>
 </defs>
 <g id="figure_1">
  <g id="patch_1">
   <path d="M 0 339.84 
L 452.88 339.84 
L 452.88 0 
L 0 0 
z
" style="fill: #ffffff"/>
  </g>
  <g id="axes_1">
   <g id="patch_2">
    <path d="M 54.268365 300.676635 
L 440.337885 300.676635 
L 440.337885 3.00024 
L 54.268365 3.00024 
z
" style="fill: #ffffff"/>
   </g>
   <g id="matplotlib.axis_1">
    <g id="xtick_1">
     <g id="line2d_1">
      <defs>
       <path id="m9ea060bf17" d="M 0 0 
L 0 3.5 
" style="stroke: #000000; stroke-width: 0.8"/>
      </defs>
      <g>
       <use xlink:href="#m9ea060bf17" x="54.268365" y="300.676635" style="stroke: #000000; stroke-width: 0.8"/>
      </g>
     </g>
     <g id="text_1">
      <!-- 0.7 -->
      <g transform="translate(44.72649 316.79476)scale(0.12 -0.12)">
       <defs>
        <path id="DejaVuSans-30" d="M 2034 4250 
Q 1547 4250 1301 3770 
Q 1056 3291 1056 2328 
Q 1056 1369 1301 889 
Q 1547 409 2034 409 
Q 2525 409 2770 889 
Q 3016 1369 3016 2328 
Q 3016 3291 2770 3770 
Q 2525 4250 2034 4250 
z
M 2034 4750 
Q 2819 4750 3233 4129 
Q 3647 3509 3647 2328 
Q 3647 1150 3233 529 
Q 2819 -91 2034 -91 
Q 1250 -91 836 529 
Q 422 1150 422 2328 
Q 422 3509 836 4129 
Q 1250 4750 2034 4750 
z
" transform="scale(0.015625)"/>
        <path id="DejaVuSans-2e" d="M 684 794 
L 1344 794 
L 1344 0 
L 684 0 
L 684 794 
z
" transform="scale(0.015625)"/>
        <path id="DejaVuSans-37" d="M 525 4666 
L 3525 4666 
L 3525 4397 
L 1831 0 
L 1172 0 
L 2766 4134 
L 525 4134 
L 525 4666 
z
" transform="scale(0.015625)"/>
       </defs>
       <use xlink:href="#DejaVuSans-30"/>
       <use xlink:href="#DejaVuSans-2e" x="63.623047"/>
       <use xlink:href="#DejaVuSans-37" x="95.410156"/>
      </g>
     </g>
    </g>
    <g id="xtick_2">
     <g id="line2d_2">
      <g>
       <use xlink:href="#m9ea060bf17" x="102.527055" y="300.676635" style="stroke: #000000; stroke-width: 0.8"/>
      </g>
     </g>
     <g id="text_2">
      <!-- 0.8 -->
      <g transform="translate(92.98518 316.79476)scale(0.12 -0.12)">
       <defs>
        <path id="DejaVuSans-38" d="M 2034 2216 
Q 1584 2216 1326 1975 
Q 1069 1734 1069 1313 
Q 1069 891 1326 650 
Q 1584 409 2034 409 
Q 2484 409 2743 651 
Q 3003 894 3003 1313 
Q 3003 1734 2745 1975 
Q 2488 2216 2034 2216 
z
M 1403 2484 
Q 997 2584 770 2862 
Q 544 3141 544 3541 
Q 544 4100 942 4425 
Q 1341 4750 2034 4750 
Q 2731 4750 3128 4425 
Q 3525 4100 3525 3541 
Q 3525 3141 3298 2862 
Q 3072 2584 2669 2484 
Q 3125 2378 3379 2068 
Q 3634 1759 3634 1313 
Q 3634 634 3220 271 
Q 2806 -91 2034 -91 
Q 1263 -91 848 271 
Q 434 634 434 1313 
Q 434 1759 690 2068 
Q 947 2378 1403 2484 
z
M 1172 3481 
Q 1172 3119 1398 2916 
Q 1625 2713 2034 2713 
Q 2441 2713 2670 2916 
Q 2900 3119 2900 3481 
Q 2900 3844 2670 4047 
Q 2441 4250 2034 4250 
Q 1625 4250 1398 4047 
Q 1172 3844 1172 3481 
z
" transform="scale(0.015625)"/>
       </defs>
       <use xlink:href="#DejaVuSans-30"/>
       <use xlink:href="#DejaVuSans-2e" x="63.623047"/>
       <use xlink:href="#DejaVuSans-38" x="95.410156"/>
      </g>
     </g>
    </g>
    <g id="xtick_3">
     <g id="line2d_3">
      <g>
       <use xlink:href="#m9ea060bf17" x="150.785745" y="300.676635" style="stroke: #000000; stroke-width: 0.8"/>
      </g>
     </g>
     <g id="text_3">
      <!-- 0.9 -->
      <g transform="translate(141.24387 316.79476)scale(0.12 -0.12)">
       <defs>
        <path id="DejaVuSans-39" d="M 703 97 
L 703 672 
Q 941 559 1184 500 
Q 1428 441 1663 441 
Q 2288 441 2617 861 
Q 2947 1281 2994 2138 
Q 2813 1869 2534 1725 
Q 2256 1581 1919 1581 
Q 1219 1581 811 2004 
Q 403 2428 403 3163 
Q 403 3881 828 4315 
Q 1253 4750 1959 4750 
Q 2769 4750 3195 4129 
Q 3622 3509 3622 2328 
Q 3622 1225 3098 567 
Q 2575 -91 1691 -91 
Q 1453 -91 1209 -44 
Q 966 3 703 97 
z
M 1959 2075 
Q 2384 2075 2632 2365 
Q 2881 2656 2881 3163 
Q 2881 3666 2632 3958 
Q 2384 4250 1959 4250 
Q 1534 4250 1286 3958 
Q 1038 3666 1038 3163 
Q 1038 2656 1286 2365 
Q 1534 2075 1959 2075 
z
" transform="scale(0.015625)"/>
       </defs>
       <use xlink:href="#DejaVuSans-30"/>
       <use xlink:href="#DejaVuSans-2e" x="63.623047"/>
       <use xlink:href="#DejaVuSans-39" x="95.410156"/>
      </g>
     </g>
    </g>
    <g id="xtick_4">
     <g id="line2d_4">
      <g>
       <use xlink:href="#m9ea060bf17" x="199.044435" y="300.676635" style="stroke: #000000; stroke-width: 0.8"/>
      </g>
     </g>
     <g id="text_4">
      <!-- 1.0 -->
      <g transform="translate(189.50256 316.79476)scale(0.12 -0.12)">
       <defs>
        <path id="DejaVuSans-31" d="M 794 531 
L 1825 531 
L 1825 4091 
L 703 3866 
L 703 4441 
L 1819 4666 
L 2450 4666 
L 2450 531 
L 3481 531 
L 3481 0 
L 794 0 
L 794 531 
z
" transform="scale(0.015625)"/>
       </defs>
       <use xlink:href="#DejaVuSans-31"/>
       <use xlink:href="#DejaVuSans-2e" x="63.623047"/>
       <use xlink:href="#DejaVuSans-30" x="95.410156"/>
      </g>
     </g>
    </g>
    <g id="xtick_5">
     <g id="line2d_5">
      <g>
       <use xlink:href="#m9ea060bf17" x="247.303125" y="300.676635" style="stroke: #000000; stroke-width: 0.8"/>
      </g>
     </g>
     <g id="text_5">
      <!-- 1.1 -->
      <g transform="translate(237.76125 316.79476)scale(0.12 -0.12)">
       <use xlink:href="#DejaVuSans-31"/>
       <use xlink:href="#DejaVuSans-2e" x="63.623047"/>
       <use xlink:href="#DejaVuSans-31" x="95.410156"/>
      </g>
     </g>
    </g>
    <g id="xtick_6">
     <g id="line2d_6">
      <g>
       <use xlink:href="#m9ea060bf17" x="295.561815" y="300.676635" style="stroke: #000000; stroke-width: 0.8"/>
      </g>
     </g>
     <g id="text_6">
      <!-- 1.2 -->
      <g transform="translate(286.01994 316.79476)scale(0.12 -0.12)">
       <defs>
        <path id="DejaVuSans-32" d="M 1228 531 
L 3431 531 
L 3431 0 
L 469 0 
L 469 531 
Q 828 903 1448 1529 
Q 2069 2156 2228 2338 
Q 2531 2678 2651 2914 
Q 2772 3150 2772 3378 
Q 2772 3750 2511 3984 
Q 2250 4219 1831 4219 
Q 1534 4219 1204 4116 
Q 875 4013 500 3803 
L 500 4441 
Q 881 4594 1212 4672 
Q 1544 4750 1819 4750 
Q 2544 4750 2975 4387 
Q 3406 4025 3406 3419 
Q 3406 3131 3298 2873 
Q 3191 2616 2906 2266 
Q 2828 2175 2409 1742 
Q 1991 1309 1228 531 
z
" transform="scale(0.015625)"/>
       </defs>
       <use xlink:href="#DejaVuSans-31"/>
       <use xlink:href="#DejaVuSans-2e" x="63.623047"/>
       <use xlink:href="#DejaVuSans-32" x="95.410156"/>
      </g>
     </g>
    </g>
    <g id="xtick_7">
     <g id="line2d_7">
      <g>
       <use xlink:href="#m9ea060bf17" x="343.820505" y="300.676635" style="stroke: #000000; stroke-width: 0.8"/>
      </g>
     </g>
     <g id="text_7">
      <!-- 1.3 -->
      <g transform="translate(334.27863 316.79476)scale(0.12 -0.12)">
       <defs>
        <path id="DejaVuSans-33" d="M 2597 2516 
Q 3050 2419 3304 2112 
Q 3559 1806 3559 1356 
Q 3559 666 3084 287 
Q 2609 -91 1734 -91 
Q 1441 -91 1130 -33 
Q 819 25 488 141 
L 488 750 
Q 750 597 1062 519 
Q 1375 441 1716 441 
Q 2309 441 2620 675 
Q 2931 909 2931 1356 
Q 2931 1769 2642 2001 
Q 2353 2234 1838 2234 
L 1294 2234 
L 1294 2753 
L 1863 2753 
Q 2328 2753 2575 2939 
Q 2822 3125 2822 3475 
Q 2822 3834 2567 4026 
Q 2313 4219 1838 4219 
Q 1578 4219 1281 4162 
Q 984 4106 628 3988 
L 628 4550 
Q 988 4650 1302 4700 
Q 1616 4750 1894 4750 
Q 2613 4750 3031 4423 
Q 3450 4097 3450 3541 
Q 3450 3153 3228 2886 
Q 3006 2619 2597 2516 
z
" transform="scale(0.015625)"/>
       </defs>
       <use xlink:href="#DejaVuSans-31"/>
       <use xlink:href="#DejaVuSans-2e" x="63.623047"/>
       <use xlink:href="#DejaVuSans-33" x="95.410156"/>
      </g>
     </g>
    </g>
    <g id="xtick_8">
     <g id="line2d_8">
      <g>
       <use xlink:href="#m9ea060bf17" x="392.079195" y="300.676635" style="stroke: #000000; stroke-width: 0.8"/>
      </g>
     </g>
     <g id="text_8">
      <!-- 1.4 -->
      <g transform="translate(382.53732 316.79476)scale(0.12 -0.12)">
       <defs>
        <path id="DejaVuSans-34" d="M 2419 4116 
L 825 1625 
L 2419 1625 
L 2419 4116 
z
M 2253 4666 
L 3047 4666 
L 3047 1625 
L 3713 1625 
L 3713 1100 
L 3047 1100 
L 3047 0 
L 2419 0 
L 2419 1100 
L 313 1100 
L 313 1709 
L 2253 4666 
z
" transform="scale(0.015625)"/>
       </defs>
       <use xlink:href="#DejaVuSans-31"/>
       <use xlink:href="#DejaVuSans-2e" x="63.623047"/>
       <use xlink:href="#DejaVuSans-34" x="95.410156"/>
      </g>
     </g>
    </g>
    <g id="xtick_9">
     <g id="line2d_9">
      <g>
       <use xlink:href="#m9ea060bf17" x="440.337885" y="300.676635" style="stroke: #000000; stroke-width: 0.8"/>
      </g>
     </g>
     <g id="text_9">
      <!-- 1.5 -->
      <g transform="translate(430.79601 316.79476)scale(0.12 -0.12)">
       <defs>
        <path id="DejaVuSans-35" d="M 691 4666 
L 3169 4666 
L 3169 4134 
L 1269 4134 
L 1269 2991 
Q 1406 3038 1543 3061 
Q 1681 3084 1819 3084 
Q 2600 3084 3056 2656 
Q 3513 2228 3513 1497 
Q 3513 744 3044 326 
Q 2575 -91 1722 -91 
Q 1428 -91 1123 -41 
Q 819 9 494 109 
L 494 744 
Q 775 591 1075 516 
Q 1375 441 1709 441 
Q 2250 441 2565 725 
Q 2881 1009 2881 1497 
Q 2881 1984 2565 2268 
Q 2250 2553 1709 2553 
Q 1456 2553 1204 2497 
Q 953 2441 691 2322 
L 691 4666 
z
" transform="scale(0.015625)"/>
       </defs>
       <use xlink:href="#DejaVuSans-31"/>
       <use xlink:href="#DejaVuSans-2e" x="63.623047"/>
       <use xlink:href="#DejaVuSans-35" x="95.410156"/>
      </g>
     </g>
    </g>
    <g id="text_10">
     <!-- Time [s] -->
     <g transform="translate(218.842656 333.928197)scale(0.14 -0.14)">
      <defs>
       <path id="DejaVuSans-54" d="M -19 4666 
L 3928 4666 
L 3928 4134 
L 2272 4134 
L 2272 0 
L 1638 0 
L 1638 4134 
L -19 4134 
L -19 4666 
z
" transform="scale(0.015625)"/>
       <path id="DejaVuSans-69" d="M 603 3500 
L 1178 3500 
L 1178 0 
L 603 0 
L 603 3500 
z
M 603 4863 
L 1178 4863 
L 1178 4134 
L 603 4134 
L 603 4863 
z
" transform="scale(0.015625)"/>
       <path id="DejaVuSans-6d" d="M 3328 2828 
Q 3544 3216 3844 3400 
Q 4144 3584 4550 3584 
Q 5097 3584 5394 3201 
Q 5691 2819 5691 2113 
L 5691 0 
L 5113 0 
L 5113 2094 
Q 5113 2597 4934 2840 
Q 4756 3084 4391 3084 
Q 3944 3084 3684 2787 
Q 3425 2491 3425 1978 
L 3425 0 
L 2847 0 
L 2847 2094 
Q 2847 2600 2669 2842 
Q 2491 3084 2119 3084 
Q 1678 3084 1418 2786 
Q 1159 2488 1159 1978 
L 1159 0 
L 581 0 
L 581 3500 
L 1159 3500 
L 1159 2956 
Q 1356 3278 1631 3431 
Q 1906 3584 2284 3584 
Q 2666 3584 2933 3390 
Q 3200 3197 3328 2828 
z
" transform="scale(0.015625)"/>
       <path id="DejaVuSans-65" d="M 3597 1894 
L 3597 1613 
L 953 1613 
Q 991 1019 1311 708 
Q 1631 397 2203 397 
Q 2534 397 2845 478 
Q 3156 559 3463 722 
L 3463 178 
Q 3153 47 2828 -22 
Q 2503 -91 2169 -91 
Q 1331 -91 842 396 
Q 353 884 353 1716 
Q 353 2575 817 3079 
Q 1281 3584 2069 3584 
Q 2775 3584 3186 3129 
Q 3597 2675 3597 1894 
z
M 3022 2063 
Q 3016 2534 2758 2815 
Q 2500 3097 2075 3097 
Q 1594 3097 1305 2825 
Q 1016 2553 972 2059 
L 3022 2063 
z
" transform="scale(0.015625)"/>
       <path id="DejaVuSans-20" transform="scale(0.015625)"/>
       <path id="DejaVuSans-5b" d="M 550 4863 
L 1875 4863 
L 1875 4416 
L 1125 4416 
L 1125 -397 
L 1875 -397 
L 1875 -844 
L 550 -844 
L 550 4863 
z
" transform="scale(0.015625)"/>
       <path id="DejaVuSans-73" d="M 2834 3397 
L 2834 2853 
Q 2591 2978 2328 3040 
Q 2066 3103 1784 3103 
Q 1356 3103 1142 2972 
Q 928 2841 928 2578 
Q 928 2378 1081 2264 
Q 1234 2150 1697 2047 
L 1894 2003 
Q 2506 1872 2764 1633 
Q 3022 1394 3022 966 
Q 3022 478 2636 193 
Q 2250 -91 1575 -91 
Q 1294 -91 989 -36 
Q 684 19 347 128 
L 347 722 
Q 666 556 975 473 
Q 1284 391 1588 391 
Q 1994 391 2212 530 
Q 2431 669 2431 922 
Q 2431 1156 2273 1281 
Q 2116 1406 1581 1522 
L 1381 1569 
Q 847 1681 609 1914 
Q 372 2147 372 2553 
Q 372 3047 722 3315 
Q 1072 3584 1716 3584 
Q 2034 3584 2315 3537 
Q 2597 3491 2834 3397 
z
" transform="scale(0.015625)"/>
       <path id="DejaVuSans-5d" d="M 1947 4863 
L 1947 -844 
L 622 -844 
L 622 -397 
L 1369 -397 
L 1369 4416 
L 622 4416 
L 622 4863 
L 1947 4863 
z
" transform="scale(0.015625)"/>
      </defs>
      <use xlink:href="#DejaVuSans-54"/>
      <use xlink:href="#DejaVuSans-69" x="57.958984"/>
      <use xlink:href="#DejaVuSans-6d" x="85.742188"/>
      <use xlink:href="#DejaVuSans-65" x="183.154297"/>
      <use xlink:href="#DejaVuSans-20" x="244.677734"/>
      <use xlink:href="#DejaVuSans-5b" x="276.464844"/>
      <use xlink:href="#DejaVuSans-73" x="315.478516"/>
      <use xlink:href="#DejaVuSans-5d" x="367.578125"/>
     </g>
    </g>
   </g>
   <g id="matplotlib.axis_2">
    <g id="ytick_1">
     <g id="line2d_10">
      <defs>
       <path id="m33dcca8ddd" d="M 0 0 
L -3.5 0 
" style="stroke: #000000; stroke-width: 0.8"/>
      </defs>
      <g>
       <use xlink:href="#m33dcca8ddd" x="54.268365" y="284.68815" style="stroke: #000000; stroke-width: 0.8"/>
      </g>
     </g>
     <g id="text_11">
      <!-- 0.00 -->
      <g transform="translate(20.549615 289.247212)scale(0.12 -0.12)">
       <use xlink:href="#DejaVuSans-30"/>
       <use xlink:href="#DejaVuSans-2e" x="63.623047"/>
       <use xlink:href="#DejaVuSans-30" x="95.410156"/>
       <use xlink:href="#DejaVuSans-30" x="159.033203"/>
      </g>
     </g>
    </g>
    <g id="ytick_2">
     <g id="line2d_11">
      <g>
       <use xlink:href="#m33dcca8ddd" x="54.268365" y="249.189928" style="stroke: #000000; stroke-width: 0.8"/>
      </g>
     </g>
     <g id="text_12">
      <!-- 0.25 -->
      <g transform="translate(20.549615 253.74899)scale(0.12 -0.12)">
       <use xlink:href="#DejaVuSans-30"/>
       <use xlink:href="#DejaVuSans-2e" x="63.623047"/>
       <use xlink:href="#DejaVuSans-32" x="95.410156"/>
       <use xlink:href="#DejaVuSans-35" x="159.033203"/>
      </g>
     </g>
    </g>
    <g id="ytick_3">
     <g id="line2d_12">
      <g>
       <use xlink:href="#m33dcca8ddd" x="54.268365" y="213.691706" style="stroke: #000000; stroke-width: 0.8"/>
      </g>
     </g>
     <g id="text_13">
      <!-- 0.50 -->
      <g transform="translate(20.549615 218.250768)scale(0.12 -0.12)">
       <use xlink:href="#DejaVuSans-30"/>
       <use xlink:href="#DejaVuSans-2e" x="63.623047"/>
       <use xlink:href="#DejaVuSans-35" x="95.410156"/>
       <use xlink:href="#DejaVuSans-30" x="159.033203"/>
      </g>
     </g>
    </g>
    <g id="ytick_4">
     <g id="line2d_13">
      <g>
       <use xlink:href="#m33dcca8ddd" x="54.268365" y="178.193484" style="stroke: #000000; stroke-width: 0.8"/>
      </g>
     </g>
     <g id="text_14">
      <!-- 0.75 -->
      <g transform="translate(20.549615 182.752546)scale(0.12 -0.12)">
       <use xlink:href="#DejaVuSans-30"/>
       <use xlink:href="#DejaVuSans-2e" x="63.623047"/>
       <use xlink:href="#DejaVuSans-37" x="95.410156"/>
       <use xlink:href="#DejaVuSans-35" x="159.033203"/>
      </g>
     </g>
    </g>
    <g id="ytick_5">
     <g id="line2d_14">
      <g>
       <use xlink:href="#m33dcca8ddd" x="54.268365" y="142.695262" style="stroke: #000000; stroke-width: 0.8"/>
      </g>
     </g>
     <g id="text_15">
      <!-- 1.00 -->
      <g transform="translate(20.549615 147.254324)scale(0.12 -0.12)">
       <use xlink:href="#DejaVuSans-31"/>
       <use xlink:href="#DejaVuSans-2e" x="63.623047"/>
       <use xlink:href="#DejaVuSans-30" x="95.410156"/>
       <use xlink:href="#DejaVuSans-30" x="159.033203"/>
      </g>
     </g>
    </g>
    <g id="ytick_6">
     <g id="line2d_15">
      <g>
       <use xlink:href="#m33dcca8ddd" x="54.268365" y="107.19704" style="stroke: #000000; stroke-width: 0.8"/>
      </g>
     </g>
     <g id="text_16">
      <!-- 1.25 -->
      <g transform="translate(20.549615 111.756102)scale(0.12 -0.12)">
       <use xlink:href="#DejaVuSans-31"/>
       <use xlink:href="#DejaVuSans-2e" x="63.623047"/>
       <use xlink:href="#DejaVuSans-32" x="95.410156"/>
       <use xlink:href="#DejaVuSans-35" x="159.033203"/>
      </g>
     </g>
    </g>
    <g id="ytick_7">
     <g id="line2d_16">
      <g>
       <use xlink:href="#m33dcca8ddd" x="54.268365" y="71.698818" style="stroke: #000000; stroke-width: 0.8"/>
      </g>
     </g>
     <g id="text_17">
      <!-- 1.50 -->
      <g transform="translate(20.549615 76.25788)scale(0.12 -0.12)">
       <use xlink:href="#DejaVuSans-31"/>
       <use xlink:href="#DejaVuSans-2e" x="63.623047"/>
       <use xlink:href="#DejaVuSans-35" x="95.410156"/>
       <use xlink:href="#DejaVuSans-30" x="159.033203"/>
      </g>
     </g>
    </g>
    <g id="ytick_8">
     <g id="line2d_17">
      <g>
       <use xlink:href="#m33dcca8ddd" x="54.268365" y="36.200596" style="stroke: #000000; stroke-width: 0.8"/>
      </g>
     </g>
     <g id="text_18">
      <!-- 1.75 -->
      <g transform="translate(20.549615 40.759658)scale(0.12 -0.12)">
       <use xlink:href="#DejaVuSans-31"/>
       <use xlink:href="#DejaVuSans-2e" x="63.623047"/>
       <use xlink:href="#DejaVuSans-37" x="95.410156"/>
       <use xlink:href="#DejaVuSans-35" x="159.033203"/>
      </g>
     </g>
    </g>
    <g id="text_19">
     <!-- Stimulus envelope -->
     <g transform="translate(13.638052 216.650781)rotate(-90)scale(0.14 -0.14)">
      <defs>
       <path id="DejaVuSans-53" d="M 3425 4513 
L 3425 3897 
Q 3066 4069 2747 4153 
Q 2428 4238 2131 4238 
Q 1616 4238 1336 4038 
Q 1056 3838 1056 3469 
Q 1056 3159 1242 3001 
Q 1428 2844 1947 2747 
L 2328 2669 
Q 3034 2534 3370 2195 
Q 3706 1856 3706 1288 
Q 3706 609 3251 259 
Q 2797 -91 1919 -91 
Q 1588 -91 1214 -16 
Q 841 59 441 206 
L 441 856 
Q 825 641 1194 531 
Q 1563 422 1919 422 
Q 2459 422 2753 634 
Q 3047 847 3047 1241 
Q 3047 1584 2836 1778 
Q 2625 1972 2144 2069 
L 1759 2144 
Q 1053 2284 737 2584 
Q 422 2884 422 3419 
Q 422 4038 858 4394 
Q 1294 4750 2059 4750 
Q 2388 4750 2728 4690 
Q 3069 4631 3425 4513 
z
" transform="scale(0.015625)"/>
       <path id="DejaVuSans-74" d="M 1172 4494 
L 1172 3500 
L 2356 3500 
L 2356 3053 
L 1172 3053 
L 1172 1153 
Q 1172 725 1289 603 
Q 1406 481 1766 481 
L 2356 481 
L 2356 0 
L 1766 0 
Q 1100 0 847 248 
Q 594 497 594 1153 
L 594 3053 
L 172 3053 
L 172 3500 
L 594 3500 
L 594 4494 
L 1172 4494 
z
" transform="scale(0.015625)"/>
       <path id="DejaVuSans-75" d="M 544 1381 
L 544 3500 
L 1119 3500 
L 1119 1403 
Q 1119 906 1312 657 
Q 1506 409 1894 409 
Q 2359 409 2629 706 
Q 2900 1003 2900 1516 
L 2900 3500 
L 3475 3500 
L 3475 0 
L 2900 0 
L 2900 538 
Q 2691 219 2414 64 
Q 2138 -91 1772 -91 
Q 1169 -91 856 284 
Q 544 659 544 1381 
z
M 1991 3584 
L 1991 3584 
z
" transform="scale(0.015625)"/>
       <path id="DejaVuSans-6c" d="M 603 4863 
L 1178 4863 
L 1178 0 
L 603 0 
L 603 4863 
z
" transform="scale(0.015625)"/>
       <path id="DejaVuSans-6e" d="M 3513 2113 
L 3513 0 
L 2938 0 
L 2938 2094 
Q 2938 2591 2744 2837 
Q 2550 3084 2163 3084 
Q 1697 3084 1428 2787 
Q 1159 2491 1159 1978 
L 1159 0 
L 581 0 
L 581 3500 
L 1159 3500 
L 1159 2956 
Q 1366 3272 1645 3428 
Q 1925 3584 2291 3584 
Q 2894 3584 3203 3211 
Q 3513 2838 3513 2113 
z
" transform="scale(0.015625)"/>
       <path id="DejaVuSans-76" d="M 191 3500 
L 800 3500 
L 1894 563 
L 2988 3500 
L 3597 3500 
L 2284 0 
L 1503 0 
L 191 3500 
z
" transform="scale(0.015625)"/>
       <path id="DejaVuSans-6f" d="M 1959 3097 
Q 1497 3097 1228 2736 
Q 959 2375 959 1747 
Q 959 1119 1226 758 
Q 1494 397 1959 397 
Q 2419 397 2687 759 
Q 2956 1122 2956 1747 
Q 2956 2369 2687 2733 
Q 2419 3097 1959 3097 
z
M 1959 3584 
Q 2709 3584 3137 3096 
Q 3566 2609 3566 1747 
Q 3566 888 3137 398 
Q 2709 -91 1959 -91 
Q 1206 -91 779 398 
Q 353 888 353 1747 
Q 353 2609 779 3096 
Q 1206 3584 1959 3584 
z
" transform="scale(0.015625)"/>
       <path id="DejaVuSans-70" d="M 1159 525 
L 1159 -1331 
L 581 -1331 
L 581 3500 
L 1159 3500 
L 1159 2969 
Q 1341 3281 1617 3432 
Q 1894 3584 2278 3584 
Q 2916 3584 3314 3078 
Q 3713 2572 3713 1747 
Q 3713 922 3314 415 
Q 2916 -91 2278 -91 
Q 1894 -91 1617 61 
Q 1341 213 1159 525 
z
M 3116 1747 
Q 3116 2381 2855 2742 
Q 2594 3103 2138 3103 
Q 1681 3103 1420 2742 
Q 1159 2381 1159 1747 
Q 1159 1113 1420 752 
Q 1681 391 2138 391 
Q 2594 391 2855 752 
Q 3116 1113 3116 1747 
z
" transform="scale(0.015625)"/>
      </defs>
      <use xlink:href="#DejaVuSans-53"/>
      <use xlink:href="#DejaVuSans-74" x="63.476562"/>
      <use xlink:href="#DejaVuSans-69" x="102.685547"/>
      <use xlink:href="#DejaVuSans-6d" x="130.46875"/>
      <use xlink:href="#DejaVuSans-75" x="227.880859"/>
      <use xlink:href="#DejaVuSans-6c" x="291.259766"/>
      <use xlink:href="#DejaVuSans-75" x="319.042969"/>
      <use xlink:href="#DejaVuSans-73" x="382.421875"/>
      <use xlink:href="#DejaVuSans-20" x="434.521484"/>
      <use xlink:href="#DejaVuSans-65" x="466.308594"/>
      <use xlink:href="#DejaVuSans-6e" x="527.832031"/>
      <use xlink:href="#DejaVuSans-76" x="591.210938"/>
      <use xlink:href="#DejaVuSans-65" x="650.390625"/>
      <use xlink:href="#DejaVuSans-6c" x="711.914062"/>
      <use xlink:href="#DejaVuSans-6f" x="739.697266"/>
      <use xlink:href="#DejaVuSans-70" x="800.878906"/>
      <use xlink:href="#DejaVuSans-65" x="864.355469"/>
     </g>
    </g>
   </g>
   <g id="line2d_18">
    <path d="M 54.2563 134.011721 
L 54.606176 111.290275 
L 54.630305 111.107333 
L 54.678564 111.514421 
L 54.787146 115.796138 
L 55.016375 135.79522 
L 55.667867 195.069554 
L 55.885031 199.255736 
L 55.93329 199.053587 
L 56.041872 197.141437 
L 56.234907 188.960518 
L 57.007046 148.551532 
L 57.04324 148.675563 
L 57.151822 150.418077 
L 57.393115 159.153234 
L 57.863637 174.986482 
L 58.104931 176.789725 
L 58.418612 178.014494 
L 58.599582 180.532958 
L 59.263139 191.575445 
L 59.287269 191.548479 
L 59.371721 191.041367 
L 59.540627 188.186578 
L 59.80605 179.172942 
L 60.216249 156.321583 
L 60.831547 124.037024 
L 61.024582 121.52453 
L 61.036646 121.542709 
L 61.109034 122.108295 
L 61.25381 125.687647 
L 61.470974 137.6528 
L 61.796721 170.275961 
L 62.243114 208.737034 
L 62.315502 209.85766 
L 62.36376 209.362934 
L 62.484407 204.229852 
L 62.773959 179.160566 
L 63.123835 155.980554 
L 63.160029 155.71795 
L 63.208287 156.110593 
L 63.328934 160.166128 
L 63.642616 181.194391 
L 63.944232 194.874448 
L 63.980426 195.069487 
L 64.04075 194.751121 
L 64.173461 191.763016 
L 64.861147 170.642815 
L 64.921471 170.784257 
L 65.066247 172.027861 
L 65.440252 175.489523 
L 65.464381 175.467344 
L 65.560898 175.009523 
L 65.910774 172.525944 
L 65.971097 172.671285 
L 66.079679 173.892277 
L 66.248585 179.10167 
L 66.59846 199.647196 
L 66.972465 216.417303 
L 67.056918 217.006897 
L 67.105177 216.76902 
L 67.225823 214.622876 
L 67.479181 205.051689 
L 68.178932 177.497305 
L 68.432291 174.354858 
L 68.468485 174.310052 
L 68.516743 174.420083 
L 68.661519 175.643572 
L 68.914877 177.598421 
L 68.939007 177.555294 
L 69.023459 176.835635 
L 69.168236 172.898567 
L 69.36127 160.30324 
L 69.831793 107.65349 
L 70.145474 85.962998 
L 70.229927 85.079627 
L 70.278185 85.442067 
L 70.398832 88.694191 
L 70.65219 103.229346 
L 71.58117 161.237025 
L 72.003434 174.53477 
L 72.268856 177.562057 
L 72.32918 177.637277 
L 72.365374 177.570124 
L 72.48602 176.763437 
L 72.739379 173.09587 
L 73.23403 166.422613 
L 73.523582 164.543119 
L 73.692488 160.950681 
L 73.897587 151.113443 
L 74.223333 121.37695 
L 74.621468 91.864216 
L 74.693856 91.010164 
L 74.742114 91.611292 
L 74.862761 96.887258 
L 75.128184 120.991892 
L 75.646965 165.324801 
L 75.888258 170.4371 
L 75.984776 170.741602 
L 76.033034 170.682343 
L 76.334651 169.863362 
L 76.419104 169.976387 
L 76.732785 170.56964 
L 76.781044 170.516365 
L 76.889626 170.082086 
L 77.058531 168.217587 
L 77.710024 157.585894 
L 77.794476 157.985474 
L 77.939252 160.504336 
L 78.313257 172.405247 
L 78.639003 179.499562 
L 78.723456 179.782653 
L 78.771715 179.68242 
L 78.892362 178.73388 
L 79.157784 174.306945 
L 79.761018 164.402276 
L 79.990247 163.308741 
L 80.062635 163.399701 
L 80.195346 164.163605 
L 80.472834 167.490274 
L 80.967485 173.03761 
L 81.413878 175.666875 
L 81.618978 179.604009 
L 81.944724 191.681735 
L 82.366987 204.694316 
L 82.439375 205.100642 
L 82.487634 204.954621 
L 82.596216 203.530542 
L 82.81338 197.025348 
L 83.74236 161.624194 
L 83.814748 162.034036 
L 83.935395 164.958391 
L 84.152559 177.502901 
L 84.719598 211.398284 
L 84.743728 211.490527 
L 84.779922 211.299247 
L 84.888504 208.645871 
L 85.129797 195.189463 
L 85.624449 168.662402 
L 85.865742 166.095493 
L 86.034648 164.061958 
L 86.203553 158.458722 
L 86.420717 142.057325 
L 87.011886 94.87214 
L 87.023951 94.831184 
L 87.04808 94.948447 
L 87.132533 97.559096 
L 87.313503 113.03921 
L 87.771961 179.385439 
L 88.15803 218.453919 
L 88.363129 224.355769 
L 88.375194 224.334663 
L 88.435518 223.579118 
L 88.568229 217.946447 
L 88.797458 196.123273 
L 89.461015 129.176043 
L 89.533403 128.361988 
L 89.581661 128.674387 
L 89.702308 132.023037 
L 89.943602 146.62666 
L 90.715741 196.824239 
L 90.884646 199.416681 
L 90.908775 199.380692 
L 90.993228 198.431418 
L 91.162134 193.154411 
L 91.475815 174.770396 
L 92.356536 119.760008 
L 92.501312 118.036216 
L 92.525441 118.108903 
L 92.621959 119.343477 
L 92.827058 125.930677 
L 94.06972 174.129383 
L 94.564371 185.847474 
L 94.685018 186.553955 
L 94.733277 186.459171 
L 94.841859 185.354441 
L 95.046958 180.299497 
L 95.481286 162.446998 
L 96.060391 141.462249 
L 96.325813 137.96542 
L 96.362007 137.926619 
L 96.410266 138.045258 
L 96.530913 139.130753 
L 96.760142 143.816884 
L 97.17034 157.776366 
L 97.809768 178.416062 
L 98.026932 180.228893 
L 98.087256 180.109604 
L 98.207902 179.155155 
L 98.437131 175.08256 
L 98.84733 162.831026 
L 99.281658 152.169877 
L 99.378175 151.642771 
L 99.426434 151.758897 
L 99.547081 153.073841 
L 99.921086 160.961514 
L 100.126185 163.167428 
L 100.150315 163.144916 
L 100.222703 162.618021 
L 100.391608 159.153355 
L 101.018971 143.90806 
L 101.0431 143.951915 
L 101.139618 144.708335 
L 101.380911 149.104158 
L 101.730787 154.302136 
L 101.754916 154.317161 
L 101.79111 154.233451 
L 101.923821 153.186846 
L 102.165115 151.310074 
L 102.201309 151.365788 
L 102.285762 152.13717 
L 102.430538 156.263423 
L 102.635637 170.149637 
L 103.250935 215.275306 
L 103.287129 215.012997 
L 103.395711 211.454793 
L 103.637005 193.59336 
L 104.107527 160.736945 
L 104.179915 160.006389 
L 104.228174 160.234929 
L 104.336756 162.564445 
L 104.565985 173.609391 
L 105.30193 212.380688 
L 105.350188 212.650268 
L 105.398447 212.40701 
L 105.507029 209.775789 
L 105.687999 198.316092 
L 106.315362 151.091258 
L 106.339492 151.205412 
L 106.423944 153.705432 
L 106.616979 168.589739 
L 107.123695 209.030332 
L 107.13576 209.071418 
L 107.159889 208.952443 
L 107.244342 206.628056 
L 107.437377 193.150195 
L 107.968222 154.682764 
L 107.992352 154.574741 
L 108.04061 154.863446 
L 108.161257 157.983344 
L 108.704167 178.820562 
L 108.78862 177.973504 
L 108.957525 172.590563 
L 109.476306 154.564478 
L 109.488371 154.5879 
L 109.560759 155.339929 
L 109.729664 160.176551 
L 110.236381 175.905417 
L 110.248445 175.889719 
L 110.320833 175.207355 
L 110.489739 170.522006 
L 111.117102 149.83473 
L 111.141231 149.859997 
L 111.213619 150.436859 
L 111.37046 154.129662 
L 111.623818 166.410964 
L 112.359763 211.370741 
L 112.432151 210.513898 
L 112.552798 204.454371 
L 112.794091 176.96409 
L 113.264614 126.007527 
L 113.312872 125.346725 
L 113.361131 126.086754 
L 113.481778 133.164675 
L 113.795459 169.576955 
L 114.097076 193.949318 
L 114.13327 194.274517 
L 114.181529 193.829855 
L 114.302175 189.243135 
L 114.796827 162.809159 
L 114.85715 163.704103 
L 114.989862 171.309906 
L 115.593095 222.25765 
L 115.677548 220.5731 
L 115.834389 209.369143 
L 116.558269 143.399508 
L 116.606528 143.690109 
L 116.727175 146.848335 
L 117.064985 164.238781 
L 117.354538 173.330332 
L 117.571702 174.70814 
L 117.764736 175.387174 
L 117.909512 177.254888 
L 118.114612 183.590732 
L 118.741975 204.396252 
L 118.766104 204.421391 
L 118.802298 204.293764 
L 118.91088 202.791181 
L 119.11598 195.969886 
L 119.47792 174.91849 
L 120.237994 130.023036 
L 120.4069 127.995808 
L 120.431029 128.032107 
L 120.515482 128.685462 
L 120.708516 132.513589 
L 121.444461 148.892494 
L 122.96461 167.894854 
L 123.230033 176.291623 
L 123.567844 195.688258 
L 123.881525 208.092483 
L 123.89359 208.13012 
L 123.929784 207.966466 
L 124.014237 205.797511 
L 124.159013 195.168324 
L 124.472694 149.557923 
L 124.846699 105.975255 
L 124.907022 104.849994 
L 124.955281 105.692952 
L 125.075928 113.68178 
L 125.36548 152.595172 
L 125.739485 192.309966 
L 125.811873 193.427449 
L 125.860132 193.096306 
L 125.980778 189.43019 
L 126.439236 169.962843 
L 126.511624 170.691487 
L 126.6564 176.437266 
L 127.344086 213.450264 
L 127.416474 212.999467 
L 127.549186 209.806759 
L 127.814609 196.712982 
L 128.647071 152.024408 
L 128.731524 151.338327 
L 128.779782 151.535769 
L 128.900429 153.72938 
L 129.467469 169.944812 
L 129.563986 169.0081 
L 129.732891 162.941228 
L 130.372319 134.821352 
L 130.408513 134.956023 
L 130.505031 136.607273 
L 130.698065 144.719147 
L 131.07207 172.276508 
L 131.590851 207.384776 
L 131.687368 208.797488 
L 131.735627 208.502156 
L 131.832145 205.617605 
L 132.025179 190.939272 
L 132.640478 140.334662 
L 132.688736 140.900678 
L 132.809383 146.291437 
L 133.08687 171.903407 
L 133.509134 205.730254 
L 133.65391 208.017351 
L 133.690104 207.897077 
L 133.786621 206.399412 
L 133.979656 199.172008 
L 134.413984 171.998226 
L 134.896571 147.151701 
L 135.065477 145.111106 
L 135.077541 145.125385 
L 135.149929 145.590664 
L 135.318835 148.736737 
L 136.368461 172.937462 
L 137.128536 181.866397 
L 137.430153 191.185008 
L 138.009257 208.906761 
L 138.117839 209.512314 
L 138.166098 209.40626 
L 138.27468 208.391817 
L 138.479779 203.896911 
L 138.829655 190.39758 
L 139.444953 166.807643 
L 139.553535 165.941493 
L 139.601794 166.097572 
L 139.734505 167.854171 
L 140.120575 173.821692 
L 140.156769 173.683887 
L 140.253286 172.134519 
L 140.410127 165.006147 
L 141.085748 120.14633 
L 141.170201 121.53397 
L 141.327042 130.447682 
L 142.038857 180.266388 
L 142.062987 180.18857 
L 142.159504 178.863895 
L 142.593832 169.341185 
L 142.66622 170.0409 
L 142.810996 175.089655 
L 143.462489 206.487479 
L 143.534877 205.791817 
L 143.691718 200.687797 
L 144.089852 177.282299 
L 144.463857 161.865863 
L 145.694453 131.076414 
L 145.766841 131.413751 
L 145.899553 134.079332 
L 146.152911 144.788557 
L 147.118085 190.265231 
L 147.214602 190.825831 
L 147.250796 190.704412 
L 147.359378 189.191718 
L 147.600671 181.604413 
L 147.998806 170.627479 
L 148.035 170.523336 
L 148.083258 170.762241 
L 148.203905 173.182707 
L 148.445199 183.882504 
L 149.229402 221.707314 
L 149.265596 221.807979 
L 149.30179 221.636905 
L 149.398308 219.729888 
L 149.567213 210.550239 
L 149.832636 180.572254 
L 150.423805 114.111055 
L 150.532387 112.257439 
L 150.568581 112.460868 
L 150.677163 115.012375 
L 150.95465 128.825253 
L 151.268332 140.349478 
L 151.352785 140.823357 
L 151.401043 140.666291 
L 151.52169 139.163729 
L 151.799177 132.092552 
L 152.197312 123.519624 
L 152.257635 123.339919 
L 152.305894 123.529676 
L 152.414476 125.209456 
L 152.583381 131.967609 
L 152.824675 152.216791 
L 153.367585 199.195198 
L 153.403779 199.505301 
L 153.452038 198.935587 
L 153.56062 193.500018 
L 153.826042 165.092052 
L 154.212112 129.616425 
L 154.260371 129.056058 
L 154.308629 129.783719 
L 154.429276 136.458938 
L 154.694699 166.83745 
L 155.177286 217.211454 
L 155.346191 221.027787 
L 155.370321 220.989441 
L 155.442709 220.053846 
L 155.599549 214.073206 
L 155.864972 193.351242 
L 156.456141 145.271824 
L 156.516464 144.689134 
L 156.564723 145.262772 
L 156.68537 150.809472 
L 156.950793 176.524643 
L 157.40925 217.13094 
L 157.529897 219.023754 
L 157.566091 218.856782 
L 157.674673 216.577584 
L 157.891837 205.591449 
L 158.458877 160.461287 
L 158.844946 139.744269 
L 158.977658 138.262918 
L 159.013852 138.380139 
L 159.134498 139.907543 
L 159.568827 147.343324 
L 159.617085 147.12014 
L 159.725667 145.02527 
L 159.942831 135.346689 
L 160.666712 100.470511 
L 160.811488 99.435605 
L 160.847682 99.484621 
L 160.944199 100.152693 
L 161.137234 103.503584 
L 161.46298 113.787558 
L 161.836985 133.388073 
L 162.367831 175.71826 
L 162.7539 197.846624 
L 162.922806 199.830925 
L 162.93487 199.81222 
L 163.019323 199.22266 
L 163.224422 195.611395 
L 163.574298 190.338811 
L 163.610492 190.304219 
L 163.658751 190.401985 
L 163.803527 191.414818 
L 164.189596 194.443419 
L 164.213725 194.419484 
L 164.298178 193.952492 
L 164.467084 191.338877 
L 164.913476 179.575705 
L 165.275417 173.089471 
L 165.709745 166.812317 
L 165.975168 158.182461 
L 166.385367 146.027527 
L 166.421561 145.940763 
L 166.457755 146.116588 
L 166.554272 148.045026 
L 166.723177 157.214725 
L 167.362605 200.371426 
L 167.398799 200.07878 
L 167.507381 196.491661 
L 167.73661 179.289241 
L 168.363973 130.40281 
L 168.520814 128.23649 
L 168.544943 128.279604 
L 168.629396 129.171546 
L 168.798301 134.172659 
L 169.087853 151.089157 
L 169.859992 199.25262 
L 170.089221 202.202896 
L 170.11335 202.205663 
L 170.149544 202.111714 
L 170.270191 201.012421 
L 170.487355 196.498197 
L 170.86136 183.381422 
L 171.705887 151.057959 
L 171.730016 151.096715 
L 171.802404 151.978462 
L 171.935116 157.025685 
L 172.140215 174.948356 
L 172.707255 227.772285 
L 172.71932 227.815679 
L 172.743449 227.658763 
L 172.827902 224.683704 
L 173.020936 207.058571 
L 173.660364 142.157096 
L 173.684493 142.022971 
L 173.732752 142.335546 
L 173.853399 145.939661 
L 174.179145 165.472986 
L 174.468697 176.645628 
L 174.541085 177.055867 
L 174.589344 176.835717 
L 174.709991 174.676385 
L 174.927155 165.681583 
L 175.30116 139.03709 
L 175.771682 109.584102 
L 175.892328 107.872704 
L 175.928522 108.063148 
L 176.037105 110.41132 
L 176.254269 121.396308 
L 177.231507 178.606457 
L 177.255636 178.662 
L 177.29183 178.527698 
L 177.388348 176.811625 
L 177.569318 168.202063 
L 178.281134 127.209118 
L 178.317328 127.312731 
L 178.413845 128.896006 
L 178.618944 137.01357 
L 179.415213 172.113412 
L 179.656506 174.738534 
L 179.6927 174.765154 
L 179.728894 174.694852 
L 179.837476 173.936822 
L 180.07877 170.222534 
L 180.597551 162.493313 
L 180.778521 162.160675 
L 181.031879 162.102469 
L 181.152526 161.540373 
L 181.321431 159.439411 
L 181.888471 149.586071 
L 181.948794 149.795695 
L 182.057376 151.478574 
L 182.262476 159.250954 
L 182.986356 189.705145 
L 183.058744 189.989143 
L 183.107003 189.894518 
L 183.227649 188.821296 
L 183.481007 183.956215 
L 184.216952 164.384422 
L 184.940833 140.537108 
L 184.989092 140.811484 
L 185.097674 143.311869 
L 185.290708 154.798945 
L 185.930136 197.275631 
L 185.978395 196.811284 
L 186.099041 192.654092 
L 186.3524 174.301354 
L 186.955633 130.657133 
L 187.148668 127.475214 
L 187.160733 127.485275 
L 187.221056 127.913242 
L 187.353767 131.111007 
L 187.570931 143.056936 
L 188.174165 178.452753 
L 188.18623 178.473781 
L 188.210359 178.369532 
L 188.294812 176.498627 
L 188.487847 165.743444 
L 189.006627 135.755414 
L 189.018692 135.725909 
L 189.042821 135.818928 
L 189.127274 137.617465 
L 189.308244 147.636424 
L 190.213095 206.524637 
L 190.345806 207.442816 
L 190.382 207.344937 
L 190.490582 206.20298 
L 190.695682 201.028357 
L 191.395433 181.763846 
L 191.443691 181.705474 
L 191.49195 181.782023 
L 191.733243 182.582709 
L 191.805632 182.399569 
L 191.914214 181.193944 
L 192.071054 176.523512 
L 192.336477 159.932668 
L 192.806999 132.824121 
L 192.867323 132.254074 
L 192.915581 132.568878 
L 193.036228 135.959173 
L 193.313716 152.101328 
L 193.699785 170.488521 
L 193.796302 171.105573 
L 193.832496 170.992863 
L 193.953143 169.712114 
L 194.266825 165.889888 
L 194.303019 165.963034 
L 194.387471 166.963273 
L 194.544312 172.291554 
L 195.171675 199.01088 
L 195.219934 198.671441 
L 195.340581 195.571229 
L 195.593939 181.754354 
L 196.233366 146.230336 
L 196.547048 140.276232 
L 196.812471 138.696306 
L 196.872794 138.657523 
L 196.908988 138.720475 
L 197.01757 139.403643 
L 197.174411 142.113449 
L 197.391575 150.519539 
L 197.681127 172.270551 
L 198.175779 207.278285 
L 198.248167 208.104941 
L 198.296425 207.65499 
L 198.417072 203.365691 
L 198.67043 184.032921 
L 199.309858 133.995394 
L 199.587345 127.658528 
L 199.707992 127.170592 
L 199.744186 127.23229 
L 199.864833 128.005423 
L 200.094062 131.378022 
L 200.540454 142.16269 
L 201.107494 160.160871 
L 201.469434 180.774003 
L 201.891698 202.3145 
L 201.939956 202.606014 
L 201.988215 202.177587 
L 202.096797 198.184175 
L 202.289832 180.432316 
L 202.844807 126.684413 
L 202.856872 126.653044 
L 202.881001 126.852803 
L 202.965454 130.367221 
L 203.158488 150.788488 
L 203.689334 208.940483 
L 203.701399 208.999941 
L 203.737593 208.729958 
L 203.83411 205.164908 
L 204.087468 184.290475 
L 204.413214 163.382567 
L 204.425279 163.31174 
L 204.461473 163.549977 
L 204.55799 167.156339 
L 204.799284 187.582605 
L 205.149159 211.110876 
L 205.161224 211.144648 
L 205.185353 210.973614 
L 205.269806 207.868494 
L 205.450776 190.803738 
L 206.198786 110.460393 
L 206.23498 110.294918 
L 206.283239 110.584175 
L 206.403885 113.396582 
L 206.77789 130.023971 
L 207.115701 139.140007 
L 208.334233 161.159137 
L 208.961596 174.360063 
L 209.190825 175.761903 
L 209.263213 175.649241 
L 209.395924 174.799863 
L 209.625153 171.5513 
L 209.987093 162.609554 
L 211.072913 133.194969 
L 211.109108 133.235287 
L 211.121172 133.283839 
L 211.21769 134.358586 
L 211.37453 139.085012 
L 211.652018 156.284826 
L 212.134605 183.786114 
L 212.206993 184.431546 
L 212.255251 184.184707 
L 212.375898 181.661271 
L 212.68958 168.56474 
L 212.991196 159.929676 
L 213.039455 159.787694 
L 213.087714 159.943581 
L 213.220425 161.450284 
L 213.558236 165.561922 
L 213.582365 165.511505 
L 213.666818 164.633284 
L 213.811594 160.112198 
L 214.173534 139.292534 
L 214.511345 125.803196 
L 214.559604 125.546878 
L 214.607863 125.756929 
L 214.716445 127.797891 
L 214.921544 136.665789 
L 215.307614 164.883442 
L 215.971171 211.139926 
L 216.17627 214.646831 
L 216.224529 214.438756 
L 216.333111 212.612151 
L 216.53821 204.338486 
L 216.851892 180.860954 
L 217.394802 140.02972 
L 217.455125 139.37356 
L 217.503384 139.831051 
L 217.611966 144.495309 
L 217.841195 168.057804 
L 218.311717 214.312127 
L 218.347911 214.632702 
L 218.39617 213.967187 
L 218.516816 207.695174 
L 218.806369 177.009038 
L 219.180373 144.705496 
L 219.276891 143.420421 
L 219.325149 143.775167 
L 219.457861 147.35838 
L 220.157612 170.836436 
L 220.386841 172.152867 
L 220.531617 175.130576 
L 220.724651 184.825651 
L 221.291691 220.159485 
L 221.327885 219.952541 
L 221.412338 217.161634 
L 221.581243 201.726103 
L 222.280994 122.308132 
L 222.317188 122.643449 
L 222.42577 127.001307 
L 222.654999 147.770558 
L 223.222039 199.495886 
L 223.35475 201.993451 
L 223.390944 201.842179 
L 223.487461 199.588094 
L 223.656367 188.742217 
L 223.909725 155.433031 
L 224.476765 80.119489 
L 224.537088 79.052333 
L 224.585347 79.813497 
L 224.705993 87.104778 
L 224.983481 122.068759 
L 225.429874 171.53376 
L 225.622909 175.669251 
L 225.659103 175.577986 
L 225.767685 174.182691 
L 226.370918 163.99625 
L 226.395048 164.023745 
L 226.491565 164.476016 
L 226.672535 166.670979 
L 226.986217 173.800229 
L 227.637709 188.802634 
L 227.758356 189.355393 
L 227.79455 189.295691 
L 227.891067 188.576108 
L 228.059972 185.140978 
L 228.301266 174.634053 
L 228.675271 145.957975 
L 229.025146 126.206463 
L 229.08547 125.649463 
L 229.133728 126.074676 
L 229.24231 130.101488 
L 229.495668 150.707878 
L 229.917932 180.978208 
L 229.954126 181.294771 
L 230.002385 180.967792 
L 230.123031 177.159233 
L 230.641812 153.25663 
L 230.7142 154.442093 
L 230.858976 162.532005 
L 231.474275 208.281177 
L 231.534598 207.525053 
L 231.667309 201.37769 
L 231.993056 172.407061 
L 232.342931 149.316874 
L 232.451513 148.148927 
L 232.487707 148.270701 
L 232.596289 149.774375 
L 233.066811 159.419398 
L 233.151264 159.029504 
L 233.513204 155.083418 
L 233.609722 155.692087 
L 233.742433 159.380785 
L 233.947533 173.210961 
L 234.490443 211.333056 
L 234.514572 211.394701 
L 234.538701 211.20762 
L 234.635219 207.993914 
L 234.840318 191.27311 
L 235.479746 135.240191 
L 235.564199 134.443041 
L 235.612457 134.595033 
L 235.733104 136.341725 
L 236.107109 143.148098 
L 236.155368 142.987171 
L 236.276014 141.136918 
L 236.637955 130.304393 
L 236.867183 126.762607 
L 236.879248 126.782514 
L 236.951636 127.460054 
L 237.096412 131.534889 
L 237.34977 146.153211 
L 237.784098 186.593572 
L 238.182233 216.636574 
L 238.266685 217.795261 
L 238.314944 217.218015 
L 238.423526 212.12113 
L 238.64069 187.955379 
L 239.159471 129.893362 
L 239.195665 129.550057 
L 239.231859 130.037806 
L 239.340441 135.845728 
L 239.605864 166.187302 
L 239.955739 197.982249 
L 239.991933 198.238255 
L 240.028127 197.755501 
L 240.13671 192.497197 
L 240.390068 165.991698 
L 240.812331 126.357168 
L 240.896784 125.122947 
L 240.945043 125.445922 
L 241.065689 128.948148 
L 241.331112 145.230945 
L 241.825764 172.951778 
L 242.030863 175.881675 
L 242.079122 175.659882 
L 242.187704 173.782595 
L 242.380739 165.520006 
L 243.068425 130.160141 
L 243.092554 130.249934 
L 243.177007 131.699102 
L 243.370042 140.175202 
L 244.118051 177.877229 
L 244.190439 178.274237 
L 244.238698 178.141932 
L 244.34728 176.681569 
L 244.540315 170.102466 
L 244.91432 146.819065 
L 245.179743 137.040075 
L 245.191807 137.011945 
L 245.215937 137.098569 
L 245.288325 138.600209 
L 245.433101 148.04379 
L 245.758847 190.225382 
L 246.108722 224.73632 
L 246.169046 225.556829 
L 246.217304 224.929881 
L 246.337951 219.22988 
L 246.627503 191.46667 
L 247.013573 161.423991 
L 247.122155 160.078261 
L 247.158349 160.232897 
L 247.266931 162.106919 
L 247.568548 172.870407 
L 247.8581 179.518561 
L 247.918423 179.735991 
L 247.966682 179.629316 
L 248.075264 178.506415 
L 248.268299 173.652193 
L 248.569916 159.569336 
L 248.992179 141.841101 
L 249.028373 141.626666 
L 249.076632 141.865491 
L 249.173149 144.392264 
L 249.342055 156.410246 
L 250.041806 222.117038 
L 250.102129 221.414472 
L 250.23484 215.155075 
L 250.500263 188.959005 
L 251.200014 117.154474 
L 251.332726 114.231606 
L 251.36892 114.415743 
L 251.465437 117.205279 
L 251.634342 130.929399 
L 252.056606 192.21486 
L 252.358223 219.966275 
L 252.430611 220.920469 
L 252.47887 220.429054 
L 252.599516 215.959283 
L 252.889068 194.149301 
L 253.299267 168.35237 
L 253.56469 163.237388 
L 253.769789 162.496123 
L 254.023148 162.195723 
L 254.252376 161.377387 
L 254.553993 159.381915 
L 254.927998 155.282893 
L 255.374391 147.721879 
L 256.098271 134.952331 
L 256.170659 134.800004 
L 256.218918 134.907206 
L 256.339565 135.866086 
L 256.580858 140.062734 
L 257.654614 166.318289 
L 258.197524 178.33623 
L 258.245783 178.105876 
L 258.354365 176.061963 
L 258.52327 167.731338 
L 259.198892 119.018784 
L 259.283345 120.724112 
L 259.440186 132.328706 
L 260.127872 199.342129 
L 260.188195 198.737855 
L 260.320907 193.404827 
L 260.634588 168.775572 
L 261.008593 145.577024 
L 261.177498 143.103747 
L 261.201628 143.151876 
L 261.28608 144.086352 
L 261.442921 148.887086 
L 261.708344 165.326946 
L 262.166802 192.560135 
L 262.202996 192.854309 
L 262.251254 192.526782 
L 262.347772 189.064225 
L 262.540806 171.078012 
L 263.095781 116.970342 
L 263.131975 117.375615 
L 263.228493 122.62677 
L 263.445657 150.744278 
L 263.976502 220.79024 
L 264.060955 222.070188 
L 264.109214 221.560664 
L 264.241925 216.532624 
L 264.989935 180.045202 
L 265.002 180.046149 
L 265.062323 180.280741 
L 265.207099 182.097764 
L 266.039561 194.930177 
L 266.08782 194.977432 
L 266.136079 194.905156 
L 266.244661 194.273144 
L 266.425631 191.635415 
L 266.678989 184.203396 
L 267.004735 167.257049 
L 267.692422 128.699386 
L 267.716551 128.602449 
L 267.76481 128.882715 
L 267.873392 131.845984 
L 268.10262 145.947742 
L 268.778242 189.801333 
L 268.971277 192.062609 
L 268.983341 192.052339 
L 269.05573 191.644841 
L 269.200506 189.172842 
L 269.465928 180.031286 
L 269.912321 166.091429 
L 269.96058 165.899422 
L 270.008839 166.133048 
L 270.117421 168.440083 
L 270.334585 179.422284 
L 270.853366 205.606945 
L 270.88956 205.77771 
L 270.937818 205.536843 
L 271.058465 202.895834 
L 271.311823 190.7788 
L 271.939186 160.077762 
L 272.216674 155.674973 
L 272.289062 155.470926 
L 272.33732 155.54511 
L 272.445902 156.316024 
L 272.626873 159.483257 
L 272.892295 168.625589 
L 273.242171 189.42879 
L 273.748887 218.296628 
L 273.80921 218.779691 
L 273.857469 218.39796 
L 273.966051 214.69245 
L 274.183215 196.937102 
L 274.774384 146.458934 
L 274.822643 146.076411 
L 274.870902 146.376858 
L 274.991548 149.556265 
L 275.341424 167.592008 
L 275.606847 175.127805 
L 275.630976 175.168844 
L 275.66717 175.049352 
L 275.775752 173.519492 
L 275.992916 166.463119 
L 276.740926 139.733174 
L 276.765055 139.703372 
L 276.801249 139.840669 
L 276.897767 141.370483 
L 277.066672 148.757556 
L 277.440677 179.730532 
L 277.742294 196.192585 
L 277.778488 196.435166 
L 277.826746 195.972826 
L 277.947393 191.230148 
L 278.200751 169.725608 
L 278.79192 119.353948 
L 278.984955 115.861835 
L 278.99702 115.865666 
L 279.057343 116.25644 
L 279.190054 119.204235 
L 279.419283 130.434352 
L 280.420651 188.192458 
L 280.541298 188.732238 
L 280.577492 188.685675 
L 280.686074 188.109694 
L 281.01182 184.630233 
L 281.796024 177.056032 
L 282.206223 174.881574 
L 282.447516 174.484978 
L 282.556098 174.576237 
L 282.700874 175.107828 
L 282.893909 176.866235 
L 283.135202 181.420165 
L 283.714307 196.176033 
L 283.786695 195.757659 
L 283.907341 192.576009 
L 284.100376 179.783654 
L 284.751868 129.62708 
L 284.763933 129.645389 
L 284.824256 130.663216 
L 284.969033 138.213869 
L 285.560201 178.829899 
L 285.620525 178.275025 
L 285.753236 173.269491 
L 286.332341 142.128817 
L 286.416793 143.104326 
L 286.573634 149.571045 
L 287.502614 196.679242 
L 287.526743 196.70065 
L 287.562937 196.623078 
L 287.671519 195.652271 
L 287.876619 191.238139 
L 288.600499 172.996181 
L 288.612564 173.010774 
L 288.684952 173.47706 
L 288.853857 176.612307 
L 289.674255 194.809602 
L 289.891419 195.162756 
L 290.036195 195.489766 
L 290.193036 196.623637 
L 290.458459 200.738397 
L 291.073757 210.219091 
L 291.15821 210.396489 
L 291.194404 210.329797 
L 291.302986 209.551121 
L 291.471891 206.350334 
L 291.713184 196.653986 
L 292.618035 150.238526 
L 292.654229 150.375427 
L 292.762811 151.923085 
L 292.979975 159.128026 
L 293.824502 193.821944 
L 293.872761 193.55367 
L 293.981343 191.033741 
L 294.174378 179.817297 
L 294.693159 149.000207 
L 294.717288 149.062108 
L 294.789676 150.722788 
L 294.946517 161.95222 
L 295.670397 231.302175 
L 295.73072 230.765077 
L 295.863432 225.9706 
L 296.165049 204.410486 
L 296.599377 178.037292 
L 296.8648 172.339787 
L 296.949252 172.013972 
L 296.997511 172.125963 
L 297.118158 173.304802 
L 297.564551 180.092277 
L 297.636939 179.681452 
L 297.757585 176.877437 
L 297.938555 166.133066 
L 298.348754 121.941807 
L 298.674501 98.054062 
L 298.734824 97.294498 
L 298.795147 97.766296 
L 298.927859 102.378789 
L 299.229475 123.554366 
L 299.663804 149.57258 
L 299.929226 154.82298 
L 300.037808 155.202895 
L 300.074003 155.146811 
L 300.182585 154.514524 
L 300.448007 151.138453 
L 300.761689 148.163089 
L 300.797883 148.169917 
L 300.822012 148.234237 
L 300.91853 149.035151 
L 301.087435 152.872009 
L 301.401116 166.382448 
L 302.149126 199.29369 
L 302.330096 201.200604 
L 302.342161 201.186877 
L 302.414549 200.693348 
L 302.54726 197.817632 
L 302.824748 185.363983 
L 303.307335 165.288744 
L 303.403852 164.606592 
L 303.452111 164.723815 
L 303.572758 166.009771 
L 304.055344 173.282177 
L 304.127732 172.990716 
L 304.284573 170.8588 
L 304.670643 165.404825 
L 304.694772 165.425915 
L 304.76716 165.967986 
L 304.899872 169.205091 
L 305.189424 183.744047 
L 305.575493 199.472984 
L 305.623752 199.721607 
L 305.672011 199.455791 
L 305.792657 196.827731 
L 306.033951 185.490922 
L 306.78196 148.092334 
L 307.035319 144.342809 
L 307.083577 144.240413 
L 307.131836 144.339553 
L 307.252483 145.399288 
L 307.662682 150.090862 
L 307.71094 149.943269 
L 307.819522 148.462092 
L 307.988428 142.066465 
L 308.350368 116.010456 
L 308.712308 96.391298 
L 308.784696 95.733013 
L 308.832955 96.006492 
L 308.953601 98.848249 
L 309.194895 111.339054 
L 310.027357 158.64735 
L 310.196263 160.760446 
L 310.220392 160.729662 
L 310.304845 159.943167 
L 310.509944 155.059817 
L 310.883949 147.13008 
L 310.908078 147.138376 
L 310.920143 147.180889 
L 311.004596 148.275486 
L 311.161437 154.304779 
L 311.499247 178.381297 
L 311.981834 208.609238 
L 312.162804 211.445441 
L 312.174869 211.418606 
L 312.247257 210.645447 
L 312.392033 205.749428 
L 312.609197 189.12087 
L 313.007331 136.381116 
L 313.586436 66.174734 
L 313.827729 57.238684 
L 313.851859 57.294854 
L 313.924247 58.61842 
L 314.069023 66.845614 
L 314.298251 95.538935 
L 315.191037 221.460952 
L 315.311684 223.686533 
L 315.347878 223.46096 
L 315.444395 220.817158 
L 315.625365 207.723604 
L 315.951112 162.634845 
L 316.421634 105.430653 
L 316.54228 102.658695 
L 316.578474 102.951058 
L 316.687057 106.425902 
L 316.916285 122.98526 
L 317.616036 176.713113 
L 317.85733 182.101638 
L 317.881459 182.162986 
L 317.929718 182.00979 
L 318.0383 180.31858 
L 318.267529 172.02877 
L 319.003474 143.052157 
L 319.220638 141.583178 
L 319.280961 141.674567 
L 319.413673 142.486842 
L 319.654966 145.616886 
L 319.956583 152.715028 
L 320.294394 166.524063 
L 321.452602 221.633377 
L 321.573249 222.240744 
L 321.609443 222.156699 
L 321.718025 221.148181 
L 321.898995 216.883575 
L 322.188547 203.895186 
L 322.647005 171.837023 
L 323.20198 136.034708 
L 323.334691 134.057882 
L 323.370885 134.241955 
L 323.479467 136.684039 
L 323.696631 148.091318 
L 324.4929 194.56854 
L 324.529094 194.68621 
L 324.565288 194.503647 
L 324.661805 192.436673 
L 324.83071 182.586867 
L 325.084069 151.554435 
L 325.651108 81.890525 
L 325.699367 81.111919 
L 325.747626 81.717698 
L 325.856208 87.640333 
L 326.085436 115.206407 
L 326.785187 204.82204 
L 326.990287 210.579625 
L 327.002352 210.570173 
L 327.062675 209.930947 
L 327.195386 205.000851 
L 327.424615 185.772186 
L 328.486306 82.199937 
L 328.570759 81.482136 
L 328.619018 81.813248 
L 328.7276 84.622326 
L 328.920634 96.805599 
L 329.330833 141.175239 
L 329.849614 189.298747 
L 330.127102 198.879036 
L 330.187425 199.18716 
L 330.235684 198.947915 
L 330.344266 196.789313 
L 330.585559 186.00161 
L 331.044017 166.860547 
L 331.080211 166.660834 
L 331.12847 166.881374 
L 331.237052 169.202663 
L 331.46628 180.088507 
L 332.117773 212.451773 
L 332.21429 213.138501 
L 332.250484 212.983108 
L 332.347001 211.377566 
L 332.515907 203.984094 
L 332.769265 180.881846 
L 333.432822 115.928348 
L 333.493145 115.19766 
L 333.553469 115.714088 
L 333.674115 120.068065 
L 333.915409 139.118918 
L 334.79613 219.83446 
L 334.820259 219.740748 
L 334.892647 217.963493 
L 335.037423 207.368213 
L 335.375234 161.03913 
L 335.773368 118.0004 
L 335.869886 116.266022 
L 335.918145 116.658398 
L 336.038791 120.574293 
L 336.328343 139.641321 
L 336.702348 159.121937 
L 336.822995 160.488613 
L 336.859189 160.367671 
L 336.955706 158.794413 
L 337.124612 151.44398 
L 337.37797 128.780862 
L 337.957074 74.489734 
L 337.993268 74.154988 
L 338.041527 74.720227 
L 338.150109 80.424276 
L 338.391402 108.755604 
L 338.922248 169.950354 
L 339.067024 172.63504 
L 339.103218 172.548353 
L 339.2118 171.073546 
L 339.57374 164.450819 
L 339.621999 164.709625 
L 339.742646 167.094743 
L 340.008068 177.973252 
L 340.490655 196.136557 
L 340.780208 199.218736 
L 341.021501 202.015237 
L 341.262794 208.441579 
L 341.528217 213.453413 
L 341.576476 213.143832 
L 341.685058 210.220388 
L 341.853963 197.732139 
L 342.119386 156.425429 
L 342.614038 84.672991 
L 342.674361 83.4437 
L 342.72262 84.424815 
L 342.843267 93.885599 
L 343.108689 138.140992 
L 343.639535 223.584811 
L 343.868764 232.890538 
L 343.892893 232.931876 
L 343.917022 232.806006 
L 344.01354 230.690443 
L 344.19451 220.310863 
L 344.930455 162.707127 
L 345.002843 163.997125 
L 345.147619 172.979278 
L 345.762917 223.662334 
L 345.823241 222.83897 
L 345.955952 216.319142 
L 346.305828 183.969501 
L 346.619509 164.704798 
L 346.691897 164.054627 
L 346.75222 164.353306 
L 346.896996 167.152186 
L 347.234807 173.991813 
L 347.258937 173.940809 
L 347.331325 172.986089 
L 347.50023 166.667512 
L 348.079334 140.955416 
L 348.115528 141.08235 
L 348.212046 143.010874 
L 348.417145 152.95497 
L 349.249608 198.635886 
L 349.792518 219.218288 
L 350.154458 230.599816 
L 350.202717 230.772219 
L 350.238911 230.59405 
L 350.335428 228.660993 
L 350.504334 219.733215 
L 350.962791 178.703032 
L 351.288537 160.271087 
L 351.433313 158.711383 
L 351.457443 158.748997 
L 351.541895 159.397762 
L 351.75906 163.360019 
L 352.121 168.895187 
L 352.591522 173.16121 
L 352.820751 179.33396 
L 353.291273 191.81963 
L 353.303338 191.828811 
L 353.327467 191.767131 
L 353.41192 190.627312 
L 353.56876 184.211602 
L 354.184059 150.269161 
L 354.244382 150.835453 
L 354.365029 155.909651 
L 354.642516 179.869296 
L 355.04065 208.990595 
L 355.125103 209.872232 
L 355.173362 209.520133 
L 355.306073 206.024114 
L 355.704207 186.383283 
L 355.96963 179.538157 
L 356.078212 179.0869 
L 356.114406 179.136592 
L 356.235053 179.776898 
L 356.548734 181.694435 
L 356.584929 181.645772 
L 356.681446 181.051973 
L 356.862416 178.191302 
L 357.139903 169.705256 
L 357.62249 146.434407 
L 357.912042 138.273356 
L 357.936172 138.231896 
L 357.972366 138.411282 
L 358.068883 140.457726 
L 358.237789 149.989525 
L 358.841022 190.197799 
L 358.865152 190.060888 
L 358.949604 187.690336 
L 359.154704 173.368074 
L 359.601097 143.911123 
L 359.613161 143.896291 
L 359.625226 143.950522 
L 359.697614 145.795213 
L 359.866519 158.167572 
L 360.373236 198.384348 
L 360.3853 198.30944 
L 360.457688 195.997834 
L 360.626594 180.507102 
L 361.181569 121.937642 
L 361.205698 122.131381 
L 361.290151 125.994922 
L 361.483186 148.506658 
L 362.001966 210.571591 
L 362.014031 210.635805 
L 362.050225 210.323161 
L 362.146743 206.230524 
L 362.375971 184.019802 
L 362.798235 146.589647 
L 362.846494 146.125058 
L 362.894752 146.557285 
L 363.015399 150.889517 
L 363.317016 172.94429 
L 363.678956 193.076807 
L 363.823732 194.719036 
L 363.859926 194.636359 
L 363.956443 193.569623 
L 364.149478 188.349256 
L 364.547612 169.865072 
L 365.18704 141.974036 
L 365.428333 138.746785 
L 365.452463 138.732432 
L 365.488657 138.823277 
L 365.597239 139.934126 
L 365.778209 144.767768 
L 366.055696 159.603303 
L 367.129452 224.670567 
L 367.189776 225.032709 
L 367.238034 224.8469 
L 367.346616 222.751648 
L 367.539651 213.359278 
L 368.589278 152.322205 
L 368.770248 151.275526 
L 368.782312 151.276592 
L 368.8547 151.431448 
L 369.023606 152.558428 
L 369.373481 156.810551 
L 369.928456 162.929379 
L 370.278332 166.758876 
L 370.555819 172.931395 
L 371.364152 193.689695 
L 371.400346 193.72991 
L 371.43654 193.632437 
L 371.533058 192.649494 
L 371.701963 188.087092 
L 371.943257 174.138129 
L 372.353455 132.851529 
L 372.655072 113.217536 
L 372.691266 112.870874 
L 372.739525 113.319378 
L 372.836042 117.682841 
L 373.053206 141.337124 
L 373.608181 203.484627 
L 373.65644 204.016691 
L 373.716763 203.455635 
L 373.849475 198.516041 
L 374.38032 172.710305 
L 374.428579 173.049659 
L 374.561291 176.298402 
L 374.935295 186.962762 
L 374.971489 186.828336 
L 375.055942 184.910899 
L 375.212783 174.53071 
L 375.900469 113.226481 
L 375.972857 114.432321 
L 376.117633 122.684164 
L 376.539897 165.38264 
L 376.841514 183.061442 
L 376.974225 184.593753 
L 377.010419 184.477885 
L 377.119001 182.962133 
L 377.336165 175.873685 
L 378.108304 147.978761 
L 378.156563 148.208355 
L 378.265145 150.339511 
L 378.506438 160.782447 
L 378.940767 177.915711 
L 378.989025 178.117115 
L 379.037284 177.839283 
L 379.169995 175.112865 
L 379.737035 158.557475 
L 379.809423 159.118378 
L 379.966264 163.213256 
L 380.605691 184.249573 
L 380.641885 184.168986 
L 380.738403 183.086549 
L 380.931438 177.583171 
L 381.269248 160.004008 
L 382.379198 97.051038 
L 382.439522 96.742161 
L 382.48778 97.047527 
L 382.596362 99.758092 
L 382.777333 111.592952 
L 383.05482 148.569828 
L 383.525342 205.807584 
L 383.585666 206.984034 
L 383.633924 206.357845 
L 383.754571 199.787867 
L 384.333675 150.611314 
L 384.430193 153.388252 
L 384.611163 170.269954 
L 385.105814 218.340298 
L 385.129944 218.189621 
L 385.214396 214.863025 
L 385.407431 194.932199 
L 386.010665 127.213069 
L 386.022729 127.151889 
L 386.058923 127.351218 
L 386.155441 130.362489 
L 386.38467 147.189848 
L 386.843127 179.24445 
L 387.012033 181.509849 
L 387.024097 181.493807 
L 387.096485 180.95916 
L 387.253326 177.556416 
L 387.567007 164.620891 
L 388.19437 139.172407 
L 388.339147 137.947834 
L 388.363276 137.98411 
L 388.447729 138.605568 
L 388.616634 141.917696 
L 388.918251 153.112982 
L 389.992007 197.482925 
L 390.088524 197.973527 
L 390.136783 197.846119 
L 390.245365 196.589815 
L 390.426335 191.261602 
L 390.691758 175.520809 
L 391.729319 105.273301 
L 391.777578 105.050991 
L 391.825837 105.315875 
L 391.934419 107.827086 
L 392.115389 118.581624 
L 392.4532 156.578346 
L 392.899593 199.106931 
L 393.056433 202.132394 
L 393.080563 202.093309 
L 393.165016 201.12959 
L 393.370115 195.214192 
L 393.780314 184.345142 
L 394.347353 177.477202 
L 394.588647 166.355912 
L 395.240139 134.451664 
L 395.312527 134.046596 
L 395.360786 134.23302 
L 395.481433 136.118363 
L 395.710661 144.128162 
L 396.603447 181.320474 
L 396.639641 181.207477 
L 396.736159 179.630283 
L 396.929193 171.48465 
L 397.544492 143.749738 
L 397.580686 143.87389 
L 397.689268 145.648327 
L 397.966755 155.381063 
L 398.268372 162.868708 
L 398.280437 162.88801 
L 398.316631 162.787415 
L 398.425213 161.270594 
L 398.714765 152.610704 
L 398.992252 147.132054 
L 399.028446 147.208472 
L 399.112899 148.383074 
L 399.305934 155.236733 
L 399.99362 182.779282 
L 400.041879 182.941241 
L 400.090138 182.821144 
L 400.19872 181.558901 
L 400.391754 176.152234 
L 400.705436 159.974232 
L 401.151829 139.018374 
L 401.212152 138.62387 
L 401.260411 138.995884 
L 401.368993 142.410281 
L 401.586157 159.156988 
L 402.092873 198.213295 
L 402.117003 198.379968 
L 402.165261 197.969873 
L 402.285908 193.300691 
L 402.587525 169.517881 
L 402.901206 151.710784 
L 402.925336 151.55621 
L 402.973594 151.892229 
L 403.094241 155.822001 
L 403.661281 184.262876 
L 403.745733 182.82993 
L 403.926703 173.388066 
L 404.445484 144.300759 
L 404.457549 144.326861 
L 404.517872 145.244156 
L 404.662648 151.901522 
L 405.084912 186.417789 
L 405.374464 199.698884 
L 405.458917 200.373298 
L 405.507175 200.222667 
L 405.615758 198.651008 
L 405.844986 191.128732 
L 406.508543 158.647894 
L 407.280682 123.864335 
L 407.425458 122.373958 
L 407.461652 122.484146 
L 407.55817 123.858378 
L 407.73914 130.729498 
L 408.064886 153.748855 
L 408.885284 215.527639 
L 408.933542 215.84002 
L 408.981801 215.421349 
L 409.090383 211.51981 
L 409.319612 192.107189 
L 409.814264 150.735605 
L 409.850458 150.341443 
L 409.898716 150.748057 
L 410.019363 155.541723 
L 410.50195 182.526124 
L 410.562273 181.489831 
L 410.68292 173.161913 
L 410.948343 133.991605 
L 411.334412 85.526156 
L 411.382671 84.709814 
L 411.43093 85.744099 
L 411.551576 95.943038 
L 411.829064 144.818089 
L 412.251327 209.218089 
L 412.371974 212.586332 
L 412.408168 212.373683 
L 412.504686 209.467657 
L 412.709785 194.706571 
L 413.542247 127.128833 
L 413.614635 126.509309 
L 413.662894 126.914642 
L 413.771476 130.389865 
L 414.01277 147.56438 
L 414.543615 184.412213 
L 414.628068 185.179697 
L 414.676327 184.947666 
L 414.796973 182.614329 
L 415.074461 171.376459 
L 415.557048 153.673834 
L 415.870729 149.181467 
L 416.039635 148.634819 
L 416.063764 148.649086 
L 416.160281 148.923508 
L 416.341251 150.331226 
L 416.618739 154.546545 
L 417.415007 169.848402 
L 417.487395 169.593652 
L 417.608042 167.804793 
L 418.114758 155.654042 
L 418.199211 156.440505 
L 418.331922 161.408815 
L 418.573216 182.21977 
L 419.007544 216.877293 
L 419.055803 217.298579 
L 419.091997 216.863411 
L 419.200579 211.779722 
L 419.441872 186.30721 
L 419.984782 129.58786 
L 420.069235 128.34861 
L 420.117494 128.68773 
L 420.226076 131.94499 
L 420.44324 146.949641 
L 421.275702 221.258763 
L 421.34809 220.186847 
L 421.468737 212.675651 
L 421.73416 177.662823 
L 422.204682 121.134693 
L 422.265006 120.178269 
L 422.313264 120.775346 
L 422.433911 126.627394 
L 422.723463 155.144842 
L 423.097468 184.003761 
L 423.242244 186.064944 
L 423.278438 185.982513 
L 423.38702 184.693212 
L 424.038512 174.699724 
L 424.328065 174.652699 
L 424.448711 173.812615 
L 424.629681 170.516004 
L 424.931298 159.982814 
L 425.896472 120.423462 
L 425.944731 120.650492 
L 426.053313 122.927495 
L 426.246348 133.229118 
L 427.090875 185.888536 
L 427.115004 185.924618 
L 427.151198 185.779137 
L 427.247715 184.232057 
L 427.428685 176.880125 
L 427.706173 154.8848 
L 428.345601 102.095831 
L 428.405924 101.514568 
L 428.454183 101.966374 
L 428.574829 106.288033 
L 428.804058 124.310829 
L 429.781297 211.867146 
L 429.817491 211.658537 
L 429.914008 208.738245 
L 430.107043 193.494313 
L 430.674082 146.177803 
L 430.698212 146.277952 
L 430.782664 148.826119 
L 430.975699 163.80483 
L 431.446221 200.218255 
L 431.458286 200.250505 
L 431.482415 200.09672 
L 431.566868 197.494552 
L 431.771968 181.649042 
L 432.254554 143.953921 
L 432.278684 143.810706 
L 432.326942 144.204444 
L 432.447589 148.448257 
L 433.014629 179.105892 
L 433.111146 177.605379 
L 433.292116 168.720416 
L 433.822962 141.09016 
L 433.859156 141.26101 
L 433.955673 143.424702 
L 434.160773 154.285182 
L 434.932912 199.593119 
L 435.053558 200.680606 
L 435.089752 200.577786 
L 435.18627 199.286985 
L 435.355175 193.282525 
L 435.994603 162.187702 
L 436.066991 162.936843 
L 436.199702 168.806082 
L 436.802936 209.076527 
L 436.899453 207.072253 
L 437.068359 194.865286 
L 437.74398 135.461516 
L 437.780174 135.651444 
L 437.876692 138.20235 
L 438.081791 151.063044 
L 438.841866 204.148385 
L 438.998706 206.215628 
L 439.022836 206.160551 
L 439.107288 205.135437 
L 439.264129 199.659005 
L 439.553681 179.655559 
L 440.34995 112.630687 
L 440.34995 112.630687 
" clip-path="url(#pff89fb3bcb)" style="fill: none; stroke: #264653; stroke-width: 1.5; stroke-linecap: square"/>
   </g>
   <g id="patch_3">
    <path d="M 54.268365 300.676635 
L 54.268365 3.00024 
" style="fill: none; stroke: #000000; stroke-width: 0.8; stroke-linejoin: miter; stroke-linecap: square"/>
   </g>
   <g id="patch_4">
    <path d="M 54.268365 300.676635 
L 440.337885 300.676635 
" style="fill: none; stroke: #000000; stroke-width: 0.8; stroke-linejoin: miter; stroke-linecap: square"/>
   </g>
  </g>
 </g>
 <defs>
  <clipPath id="pff89fb3bcb">
   <rect x="54.268365" y="3.00024" width="386.06952" height="297.676395"/>
  </clipPath>
 </defs>
</svg>
